<?xml version="1.0" encoding="UTF-8" standalone="no"?>
<svg
   xmlns:dc="http://purl.org/dc/elements/1.1/"
   xmlns:cc="http://creativecommons.org/ns#"
   xmlns:rdf="http://www.w3.org/1999/02/22-rdf-syntax-ns#"
   xmlns:svg="http://www.w3.org/2000/svg"
   xmlns="http://www.w3.org/2000/svg"
   xml:space="preserve"
   viewBox="0 0 210 65"
   height="65"
   width="210"
   id="Layer_1"
   version="1.1"><metadata
     id="metadata21"><rdf:RDF><cc:Work
         rdf:about=""><dc:format>image/svg+xml</dc:format><dc:type
           rdf:resource="http://purl.org/dc/dcmitype/StillImage" /><dc:title>Alien 3 Logo</dc:title></cc:Work></rdf:RDF></metadata><defs
     id="defs19" /><title
     id="title2">Alien 3 Logo</title><path
     style="fill:#ffffff"
     id="path4"
     d="M33.815,5.036L5,59.836h4.641l13.582-24.502h10.373v24.568h4.368V5.036H33.815z M33.323,30.149h-7.917l7.917-14.741 V30.149z" /><rect
     style="fill:#ffffff"
     id="rect6"
     height="54.929"
     width="4.974"
     y="5.036"
     x="91.95" /><polygon
     style="fill:#ffffff"
     id="polygon8"
     points="171.064,5.036 171.064,45.181 156.736,5.036 151.959,5.036 151.959,59.964 156.736,59.964 156.868,20.036 171.064,59.964 175.841,59.964 175.841,5.036" /><polygon
     style="fill:#ffffff"
     id="polygon10"
     points="63.862,55.187 63.862,5.036 58.889,5.036 58.889,59.964 73.811,59.964 73.811,55.187" /><polygon
     style="fill:#ffffff"
     id="polygon12"
     points="133.626,9.813 133.626,5.036 118.704,5.036 118.704,59.964 133.626,59.964 133.626,55.187 123.678,55.187 123.678,33.695 133.626,33.695 133.626,28.917 123.678,28.917 123.678,9.813" /><path
     style="fill:#ffffff"
     d="m 204.66797,22.566406 c -0.005,0.412175 -0.008,0.824334 0,1.236328 z"
     id="polygon14" /></svg>