<?xml version="1.0" encoding="UTF-8" standalone="no"?>
<svg
   xmlns:dc="http://purl.org/dc/elements/1.1/"
   xmlns:cc="http://creativecommons.org/ns#"
   xmlns:rdf="http://www.w3.org/1999/02/22-rdf-syntax-ns#"
   xmlns:svg="http://www.w3.org/2000/svg"
   xmlns="http://www.w3.org/2000/svg"
   id="svg6"
   version="1.1"
   width="494"
   height="151.714">
  <metadata
     id="metadata12">
    <rdf:RDF>
      <cc:Work
         rdf:about="">
        <dc:format>image/svg+xml</dc:format>
        <dc:type
           rdf:resource="http://purl.org/dc/dcmitype/StillImage" />
        <dc:title></dc:title>
      </cc:Work>
    </rdf:RDF>
  </metadata>
  <defs
     id="defs10" />
  <g
     style="fill:#ffffff"
     id="g4"
     transform="translate(147 -102.219)">
    <path
       style="fill:#ffffff"
       id="path2"
       d="m-147 102.219v151.714h494v-151.714zm210.125 25.5625 47.25 45.7812-46.5 47.6562l-47.3125-46.969zm229 0.59375h13.0312c7.162 0 13.0312 0.24007 13.0312 0.53125s-1.87553 2.87868-4.15625 5.75c-5.73618 7.22155-8.83195 14.2312-8.84375 20-0.008 3.83105 1.15557 7.05423 5.90625 16.5312 3.25011 6.48355 6.19774 13.8045 6.5625 16.25 0.9305 6.23837-1.75201 16.9659-6.34375 25.4375l-3.78125 7-14.6875 0.28125c-8.07241 0.15221-14.6562 0.067-14.6562-0.1875s2.4589-4.1753 5.5-8.71875c6.31192-9.43008 9.01694-17.1563 8.0625-23.125-0.35227-2.20297-2.75101-8.78486-5.3125-14.625-7.38946-16.8478-6.97865-25.5092 1.78125-39.0625zm-127.125 1.843h21.4062l43.0312 43-44.9062 45h-19.5312zm-241.156 1h35.8125l-42.7812 44.875 17.125 16.0938v-25.0312l23.5-0.1875 0.53125 52.25h-33.2812l-44.9688-44.375zm261.156 29.531v26.375l14.156-13.625zm-121.5 0.531-12.9688 12.907 13.4063 13.25 13.3125-12.938z" />
  </g>
</svg>
