<?xml version="1.0" encoding="UTF-8" standalone="no"?>
<svg
   xmlns:dc="http://purl.org/dc/elements/1.1/"
   xmlns:cc="http://creativecommons.org/ns#"
   xmlns:rdf="http://www.w3.org/1999/02/22-rdf-syntax-ns#"
   xmlns:svg="http://www.w3.org/2000/svg"
   xmlns="http://www.w3.org/2000/svg"
   version="1.1"
   x="0px"
   y="0px"
   width="300px"
   height="100px"
   viewBox="0 0 300 100"
   enable-background="new 0 0 300 100"
   xml:space="preserve"
   id="svg358"><metadata
     id="metadata364"><rdf:RDF><cc:Work
         rdf:about=""><dc:format>image/svg+xml</dc:format><dc:type
           rdf:resource="http://purl.org/dc/dcmitype/StillImage" /><dc:title></dc:title></cc:Work></rdf:RDF></metadata><defs
     id="defs362"><filter
       style="color-interpolation-filters:sRGB;"
       id="filter368"><feColorMatrix
         values="0.21 0.72 0.072 0 0 0.21 0.72 0.072 0 0 0.21 0.72 0.072 0 0 0 0 0 1 0 "
         id="feColorMatrix366" /></filter></defs><g
     id="g356"
     style="filter:url(#filter368);fill:#ffffff"><path
       d="M277.626,18.976l0.996-3.287h-4.584l1.292-3.89l5.087-0.497l1.194-3.692c-5.328,0.167-11.47,1.378-13.061,1.708   l-5.025-2.438l-5.329,11.643l-3.342-10.066l-4.954,2.555c-7.064-4.862-14.674-4.044-19.888-0.354l1.521-2.947   c-9.078-0.099-21.255,0.696-21.255,0.696l-5.585,10.08l8.485-0.6c-1.202,4.084-6.146,22.183-11.776,23.442   c-3.698,0.825-5.188-1.394-5.188-1.394l-7.382,5.492c3.59,5.778,9.38,8.535,16.256,5.583c6.287-2.692,9.084-7.981,12.373-15.67   c3.296-7.675,5.793-16.763,5.793-16.763l-2.8-1.394l4.355-0.27c-2.912,6.976,2.563,13.987,7.677,14.744   c4.013,0.589,8.938-0.872,12.539-3.651c-0.278,0.913-0.445,1.486-0.445,1.486l5.091,1.066l4.053-10.819l2.173,10.297l5.086-1.512   c3.704-9.682,6.666-15.824,7.757-17.995l1.174,2.226l-5.36,15.9c7.986-1.291,12.572-1.592,12.572-1.592l1.396-3.49   c-4.485-0.305-6.887-0.108-6.887-0.108l1.195-4.181L277.626,18.976z M234.059,23.378c-2.54-1.825-2.077-6.356,1.637-7.89   c4.115-1.693,6.135,1.098,6.135,1.098l-1.283,0.796C242.684,21.271,237.808,26.052,234.059,23.378z M249.771,14.272l-1.923,0.819   l2.168-3.594l0.394,1.342C250.204,13.271,249.988,13.761,249.771,14.272z M293.087,11.799l-2.889-7.581   c-5.814,0.892-7.706,4.971-7.679,8.267c0.019,2.593,2.054,3.884,1.789,5.297c-0.497,2.643-4.183,3.395-4.183,3.395l0.897,5.984   c8.07,1.493,11.288-8.813,10.17-12.47C290.198,11.412,293.087,11.799,293.087,11.799z M110.117,16.586   c-7.354-4.118-23.043-0.299-23.043-0.299c0.119,0.328,0.244,0.692,0.37,1.072l-6.359-2.068L69.514,41.126   c-1.603-11.768-4.092-22.046-4.092-22.046c-7.183,2.594-10.98,4.861-10.98,4.861l1.301,4.071   c-9.339,17.672-15.369,35.734-18.012,44.46c-2.124,0.344-4.435,0.776-4.435,0.776c3.988-23.24,9.975-38.406,9.975-38.406   l-3.292-4.093c7.384-1.292,12.272-1.591,12.272-1.591c2.1-5.188,5.389-13.364,5.389-13.364c-18.76,1.491-34.471,6.525-34.471,6.525   s-1.321,2.512-2.833,5.869c-1.6,3.551-3.401,7.951-3.401,7.951c6.183-1.794,10.973-2.791,10.973-2.791   c-9.979,20.705-13.17,44.296-13.17,44.296c-4.393,1.094-7.883,2.393-7.883,2.393s-2.893,9.631-3.79,16.31   c0,0,8.726-3.319,18.129-6.146c9.441-2.852,16.295-3.882,16.295-3.882c0.778-3.063,1.777-7.159,2.509-10.176   c2.239-0.994,4.964-2.19,6.716-2.911c3.378-1.393,6.64-2.373,6.64-2.373c4.688-17.861,9.324-23.293,9.324-23.293   c1.896,8.38,3.74,18.903,3.74,18.903c4.49-2.388,11.374-5.391,11.374-5.391c3.444-13.146,8.738-28.308,11.689-36.448   c0.467,1.862,0.785,3.233,0.785,3.233l3.387-1.399C87.469,40.736,82.877,59.79,82.877,59.79s11.819,0.439,22.198-7.639   C116.948,42.919,121.242,22.82,110.117,16.586z M94.453,47.414c0,0,2.396-12.771,6.684-22.741l-1.892-2.004   c0,0,4.578-2.036,8.525,2.05C111.689,28.771,110.418,40.736,94.453,47.414z M193.142,37.437   c3.241-10.074,4.871-26.038,4.871-26.038h-9.908c-4.556,5.534-8.696,11.067-12.108,15.846c2.596-5.953,5.739-12.92,7.649-16.293   l-9.043,0.012l-7.061,12.789l-1.553-12.178l-7.87,3.982l0.768,2.513l-5.844,8.734c1.332-8.71,1.669-14.108,1.669-14.108   l-10.972,0.099c-6.368,7.069-11.317,13.473-15.114,18.923c4.024-10.798,7.629-18.825,7.629-18.825l-9.478,0.951   c-5.388,9.729-13.866,34.124-13.866,34.124s3.9-0.966,6.273-1.405c0.149-0.027,0.298-0.055,0.447-0.083   c-1.359,2.662-1.932,4.132-1.932,4.132s2.71-0.383,5.074-0.96c2.47-0.609,5.1-0.938,5.1-0.938l3.895-8.678l11.272-1.802l-1.6,6.382   l8.486-1.193c0.139-0.626,0.273-1.245,0.406-1.858l4.895-0.659l7.212-14.943c0,0,0.893,5.705,1.981,14.084l3.73-1.316   c-1.076,1.652-1.664,2.598-1.664,2.598s1.872-0.376,3.688-0.583c2.487-0.279,5.121-0.415,5.121-0.415l3.802-7.085l8.106,0.103   l-1.607,4.992L193.142,37.437z M143.8,28.152c-0.155,3.37-0.258,5.392-0.258,5.392l-2.995-1.398l-3.692,0.31l6.688-9.482   C143.542,22.974,143.964,24.543,143.8,28.152z M185.212,27.758l-3.219-0.095l6.218-7.484c0,0,0.617,0.599,0.063,8.579   L185.212,27.758z"
       id="path4"
       style="fill:#ffffff" /><linearGradient
       id="SVGID_1_"
       gradientUnits="userSpaceOnUse"
       x1="-387.8042"
       y1="495.7563"
       x2="-386.6019"
       y2="495.7563"
       gradientTransform="matrix(-9.2949 -30.2087 -30.2087 9.2949 11449.5928 -16260.5)"><stop
         offset="0"
         style="stop-color:#FFFCDF"
         id="stop8" /><stop
         offset="0.1237"
         style="stop-color:#FFFCDF"
         id="stop10" /><stop
         offset="0.1593"
         style="stop-color:#FFFCDB"
         id="stop12" /><stop
         offset="0.1943"
         style="stop-color:#FFFBCF"
         id="stop14" /><stop
         offset="0.229"
         style="stop-color:#FFFABC"
         id="stop16" /><stop
         offset="0.2636"
         style="stop-color:#FFF9A0"
         id="stop18" /><stop
         offset="0.2981"
         style="stop-color:#FFF77C"
         id="stop20" /><stop
         offset="0.3325"
         style="stop-color:#FFF550"
         id="stop22" /><stop
         offset="0.3663"
         style="stop-color:#FFF31D"
         id="stop24" /><stop
         offset="0.3814"
         style="stop-color:#FFF204"
         id="stop26" /><stop
         offset="0.6753"
         style="stop-color:#FCAF17"
         id="stop28" /><stop
         offset="0.9845"
         style="stop-color:#F15A22"
         id="stop30" /><stop
         offset="1"
         style="stop-color:#F15A22"
         id="stop32" /></linearGradient><linearGradient
       id="SVGID_2_"
       gradientUnits="userSpaceOnUse"
       x1="-387.3896"
       y1="494.5991"
       x2="-386.1875"
       y2="494.5991"
       gradientTransform="matrix(-0.9958 -20.2481 -20.2481 0.9958 9816.6084 -8296.6914)"><stop
         offset="0"
         style="stop-color:#FFFCDF"
         id="stop37" /><stop
         offset="0.1237"
         style="stop-color:#FFFCDF"
         id="stop39" /><stop
         offset="0.1593"
         style="stop-color:#FFFCDB"
         id="stop41" /><stop
         offset="0.1943"
         style="stop-color:#FFFBCF"
         id="stop43" /><stop
         offset="0.229"
         style="stop-color:#FFFABC"
         id="stop45" /><stop
         offset="0.2636"
         style="stop-color:#FFF9A0"
         id="stop47" /><stop
         offset="0.2981"
         style="stop-color:#FFF77C"
         id="stop49" /><stop
         offset="0.3325"
         style="stop-color:#FFF550"
         id="stop51" /><stop
         offset="0.3663"
         style="stop-color:#FFF31D"
         id="stop53" /><stop
         offset="0.3814"
         style="stop-color:#FFF204"
         id="stop55" /><stop
         offset="0.6753"
         style="stop-color:#FCAF17"
         id="stop57" /><stop
         offset="0.9845"
         style="stop-color:#F15A22"
         id="stop59" /><stop
         offset="1"
         style="stop-color:#F15A22"
         id="stop61" /></linearGradient><linearGradient
       id="SVGID_3_"
       gradientUnits="userSpaceOnUse"
       x1="-387.6899"
       y1="495.3569"
       x2="-386.4873"
       y2="495.3569"
       gradientTransform="matrix(-5.3118 -23.2391 -23.2391 5.3118 9561.7344 -11588.959)"><stop
         offset="0"
         style="stop-color:#FFFCDF"
         id="stop66" /><stop
         offset="0.1237"
         style="stop-color:#FFFCDF"
         id="stop68" /><stop
         offset="0.1593"
         style="stop-color:#FFFCDB"
         id="stop70" /><stop
         offset="0.1943"
         style="stop-color:#FFFBCF"
         id="stop72" /><stop
         offset="0.229"
         style="stop-color:#FFFABC"
         id="stop74" /><stop
         offset="0.2636"
         style="stop-color:#FFF9A0"
         id="stop76" /><stop
         offset="0.2981"
         style="stop-color:#FFF77C"
         id="stop78" /><stop
         offset="0.3325"
         style="stop-color:#FFF550"
         id="stop80" /><stop
         offset="0.3663"
         style="stop-color:#FFF31D"
         id="stop82" /><stop
         offset="0.3814"
         style="stop-color:#FFF204"
         id="stop84" /><stop
         offset="0.6753"
         style="stop-color:#FCAF17"
         id="stop86" /><stop
         offset="0.9845"
         style="stop-color:#F15A22"
         id="stop88" /><stop
         offset="1"
         style="stop-color:#F15A22"
         id="stop90" /></linearGradient><linearGradient
       id="SVGID_4_"
       gradientUnits="userSpaceOnUse"
       x1="-387.6841"
       y1="495.0093"
       x2="-386.482"
       y2="495.0093"
       gradientTransform="matrix(-2.9883 -30.5476 -30.5476 2.9883 14179.6582 -13274.0293)"><stop
         offset="0"
         style="stop-color:#FFFCDF"
         id="stop95" /><stop
         offset="0.1237"
         style="stop-color:#FFFCDF"
         id="stop97" /><stop
         offset="0.1593"
         style="stop-color:#FFFCDB"
         id="stop99" /><stop
         offset="0.1943"
         style="stop-color:#FFFBCF"
         id="stop101" /><stop
         offset="0.229"
         style="stop-color:#FFFABC"
         id="stop103" /><stop
         offset="0.2636"
         style="stop-color:#FFF9A0"
         id="stop105" /><stop
         offset="0.2981"
         style="stop-color:#FFF77C"
         id="stop107" /><stop
         offset="0.3325"
         style="stop-color:#FFF550"
         id="stop109" /><stop
         offset="0.3663"
         style="stop-color:#FFF31D"
         id="stop111" /><stop
         offset="0.3814"
         style="stop-color:#FFF204"
         id="stop113" /><stop
         offset="0.6753"
         style="stop-color:#FCAF17"
         id="stop115" /><stop
         offset="0.9845"
         style="stop-color:#F15A22"
         id="stop117" /><stop
         offset="1"
         style="stop-color:#F15A22"
         id="stop119" /></linearGradient><linearGradient
       id="SVGID_5_"
       gradientUnits="userSpaceOnUse"
       x1="-387.2163"
       y1="493.4468"
       x2="-386.0138"
       y2="493.4468"
       gradientTransform="matrix(-0.9961 -15.2737 -15.2737 0.9961 7391.8794 -6373.106)"><stop
         offset="0"
         style="stop-color:#FFFCDF"
         id="stop124" /><stop
         offset="0.1237"
         style="stop-color:#FFFCDF"
         id="stop126" /><stop
         offset="0.1593"
         style="stop-color:#FFFCDB"
         id="stop128" /><stop
         offset="0.1943"
         style="stop-color:#FFFBCF"
         id="stop130" /><stop
         offset="0.229"
         style="stop-color:#FFFABC"
         id="stop132" /><stop
         offset="0.2636"
         style="stop-color:#FFF9A0"
         id="stop134" /><stop
         offset="0.2981"
         style="stop-color:#FFF77C"
         id="stop136" /><stop
         offset="0.3325"
         style="stop-color:#FFF550"
         id="stop138" /><stop
         offset="0.3663"
         style="stop-color:#FFF31D"
         id="stop140" /><stop
         offset="0.3814"
         style="stop-color:#FFF204"
         id="stop142" /><stop
         offset="0.6753"
         style="stop-color:#FCAF17"
         id="stop144" /><stop
         offset="0.9845"
         style="stop-color:#F15A22"
         id="stop146" /><stop
         offset="1"
         style="stop-color:#F15A22"
         id="stop148" /></linearGradient><linearGradient
       id="SVGID_6_"
       gradientUnits="userSpaceOnUse"
       x1="-387.4424"
       y1="493.3286"
       x2="-386.24"
       y2="493.3286"
       gradientTransform="matrix(-1.9916 -15.9328 -15.9328 1.9916 7350.2197 -7122.5317)"><stop
         offset="0"
         style="stop-color:#FFFCDF"
         id="stop153" /><stop
         offset="0.1237"
         style="stop-color:#FFFCDF"
         id="stop155" /><stop
         offset="0.1593"
         style="stop-color:#FFFCDB"
         id="stop157" /><stop
         offset="0.1943"
         style="stop-color:#FFFBCF"
         id="stop159" /><stop
         offset="0.229"
         style="stop-color:#FFFABC"
         id="stop161" /><stop
         offset="0.2636"
         style="stop-color:#FFF9A0"
         id="stop163" /><stop
         offset="0.2981"
         style="stop-color:#FFF77C"
         id="stop165" /><stop
         offset="0.3325"
         style="stop-color:#FFF550"
         id="stop167" /><stop
         offset="0.3663"
         style="stop-color:#FFF31D"
         id="stop169" /><stop
         offset="0.3814"
         style="stop-color:#FFF204"
         id="stop171" /><stop
         offset="0.6753"
         style="stop-color:#FCAF17"
         id="stop173" /><stop
         offset="0.9845"
         style="stop-color:#F15A22"
         id="stop175" /><stop
         offset="1"
         style="stop-color:#F15A22"
         id="stop177" /></linearGradient><linearGradient
       id="SVGID_7_"
       gradientUnits="userSpaceOnUse"
       x1="-387.0688"
       y1="492.6655"
       x2="-385.8668"
       y2="492.6655"
       gradientTransform="matrix(-0.6639 -13.6104 -13.6104 0.6639 6724.877 -5564.958)"><stop
         offset="0"
         style="stop-color:#FFFCDF"
         id="stop182" /><stop
         offset="0.1237"
         style="stop-color:#FFFCDF"
         id="stop184" /><stop
         offset="0.1593"
         style="stop-color:#FFFCDB"
         id="stop186" /><stop
         offset="0.1943"
         style="stop-color:#FFFBCF"
         id="stop188" /><stop
         offset="0.229"
         style="stop-color:#FFFABC"
         id="stop190" /><stop
         offset="0.2636"
         style="stop-color:#FFF9A0"
         id="stop192" /><stop
         offset="0.2981"
         style="stop-color:#FFF77C"
         id="stop194" /><stop
         offset="0.3325"
         style="stop-color:#FFF550"
         id="stop196" /><stop
         offset="0.3663"
         style="stop-color:#FFF31D"
         id="stop198" /><stop
         offset="0.3814"
         style="stop-color:#FFF204"
         id="stop200" /><stop
         offset="0.6753"
         style="stop-color:#FCAF17"
         id="stop202" /><stop
         offset="0.9845"
         style="stop-color:#F15A22"
         id="stop204" /><stop
         offset="1"
         style="stop-color:#F15A22"
         id="stop206" /></linearGradient><linearGradient
       id="SVGID_8_"
       gradientUnits="userSpaceOnUse"
       x1="-387.0913"
       y1="492.605"
       x2="-385.8891"
       y2="492.605"
       gradientTransform="matrix(-0.6642 -13.9473 -13.9473 0.6642 6902.2881 -5695.814)"><stop
         offset="0"
         style="stop-color:#FFFCDF"
         id="stop211" /><stop
         offset="0.1237"
         style="stop-color:#FFFCDF"
         id="stop213" /><stop
         offset="0.1593"
         style="stop-color:#FFFCDB"
         id="stop215" /><stop
         offset="0.1943"
         style="stop-color:#FFFBCF"
         id="stop217" /><stop
         offset="0.229"
         style="stop-color:#FFFABC"
         id="stop219" /><stop
         offset="0.2636"
         style="stop-color:#FFF9A0"
         id="stop221" /><stop
         offset="0.2981"
         style="stop-color:#FFF77C"
         id="stop223" /><stop
         offset="0.3325"
         style="stop-color:#FFF550"
         id="stop225" /><stop
         offset="0.3663"
         style="stop-color:#FFF31D"
         id="stop227" /><stop
         offset="0.3814"
         style="stop-color:#FFF204"
         id="stop229" /><stop
         offset="0.6753"
         style="stop-color:#FCAF17"
         id="stop231" /><stop
         offset="0.9845"
         style="stop-color:#F15A22"
         id="stop233" /><stop
         offset="1"
         style="stop-color:#F15A22"
         id="stop235" /></linearGradient><linearGradient
       id="SVGID_9_"
       gradientUnits="userSpaceOnUse"
       x1="-387.896"
       y1="496.0288"
       x2="-386.6941"
       y2="496.0288"
       gradientTransform="matrix(-16.9314 -40.1707 -40.1707 16.9314 13408.1904 -23900.3652)"><stop
         offset="0"
         style="stop-color:#FFFCDF"
         id="stop240" /><stop
         offset="0.1237"
         style="stop-color:#FFFCDF"
         id="stop242" /><stop
         offset="0.1593"
         style="stop-color:#FFFCDB"
         id="stop244" /><stop
         offset="0.1943"
         style="stop-color:#FFFBCF"
         id="stop246" /><stop
         offset="0.229"
         style="stop-color:#FFFABC"
         id="stop248" /><stop
         offset="0.2636"
         style="stop-color:#FFF9A0"
         id="stop250" /><stop
         offset="0.2981"
         style="stop-color:#FFF77C"
         id="stop252" /><stop
         offset="0.3325"
         style="stop-color:#FFF550"
         id="stop254" /><stop
         offset="0.3663"
         style="stop-color:#FFF31D"
         id="stop256" /><stop
         offset="0.3814"
         style="stop-color:#FFF204"
         id="stop258" /><stop
         offset="0.6753"
         style="stop-color:#FCAF17"
         id="stop260" /><stop
         offset="0.9845"
         style="stop-color:#F15A22"
         id="stop262" /><stop
         offset="1"
         style="stop-color:#F15A22"
         id="stop264" /></linearGradient><linearGradient
       id="SVGID_10_"
       gradientUnits="userSpaceOnUse"
       x1="-387.3774"
       y1="494.189"
       x2="-386.1754"
       y2="494.189"
       gradientTransform="matrix(-1.9913 -15.2668 -15.2668 1.9913 6944.4355 -6858.8618)"><stop
         offset="0"
         style="stop-color:#FFFCDF"
         id="stop269" /><stop
         offset="0.1237"
         style="stop-color:#FFFCDF"
         id="stop271" /><stop
         offset="0.1593"
         style="stop-color:#FFFCDB"
         id="stop273" /><stop
         offset="0.1943"
         style="stop-color:#FFFBCF"
         id="stop275" /><stop
         offset="0.229"
         style="stop-color:#FFFABC"
         id="stop277" /><stop
         offset="0.2636"
         style="stop-color:#FFF9A0"
         id="stop279" /><stop
         offset="0.2981"
         style="stop-color:#FFF77C"
         id="stop281" /><stop
         offset="0.3325"
         style="stop-color:#FFF550"
         id="stop283" /><stop
         offset="0.3663"
         style="stop-color:#FFF31D"
         id="stop285" /><stop
         offset="0.3814"
         style="stop-color:#FFF204"
         id="stop287" /><stop
         offset="0.6753"
         style="stop-color:#FCAF17"
         id="stop289" /><stop
         offset="0.9845"
         style="stop-color:#F15A22"
         id="stop291" /><stop
         offset="1"
         style="stop-color:#F15A22"
         id="stop293" /></linearGradient><linearGradient
       id="SVGID_11_"
       gradientUnits="userSpaceOnUse"
       x1="-387.4961"
       y1="494.7651"
       x2="-386.2939"
       y2="494.7651"
       gradientTransform="matrix(-2.6562 -17.9291 -17.9291 2.6562 7984.5 -8217.5762)"><stop
         offset="0"
         style="stop-color:#FFFCDF"
         id="stop298" /><stop
         offset="0.1237"
         style="stop-color:#FFFCDF"
         id="stop300" /><stop
         offset="0.1593"
         style="stop-color:#FFFCDB"
         id="stop302" /><stop
         offset="0.1943"
         style="stop-color:#FFFBCF"
         id="stop304" /><stop
         offset="0.229"
         style="stop-color:#FFFABC"
         id="stop306" /><stop
         offset="0.2636"
         style="stop-color:#FFF9A0"
         id="stop308" /><stop
         offset="0.2981"
         style="stop-color:#FFF77C"
         id="stop310" /><stop
         offset="0.3325"
         style="stop-color:#FFF550"
         id="stop312" /><stop
         offset="0.3663"
         style="stop-color:#FFF31D"
         id="stop314" /><stop
         offset="0.3814"
         style="stop-color:#FFF204"
         id="stop316" /><stop
         offset="0.6753"
         style="stop-color:#FCAF17"
         id="stop318" /><stop
         offset="0.9845"
         style="stop-color:#F15A22"
         id="stop320" /><stop
         offset="1"
         style="stop-color:#F15A22"
         id="stop322" /></linearGradient><linearGradient
       id="SVGID_12_"
       gradientUnits="userSpaceOnUse"
       x1="-387.5942"
       y1="495.3394"
       x2="-386.392"
       y2="495.3394"
       gradientTransform="matrix(-2.3236 -26.2238 -26.2238 2.3236 12220.9512 -11265.4824)"><stop
         offset="0"
         style="stop-color:#FFFCDF"
         id="stop327" /><stop
         offset="0.1237"
         style="stop-color:#FFFCDF"
         id="stop329" /><stop
         offset="0.1593"
         style="stop-color:#FFFCDB"
         id="stop331" /><stop
         offset="0.1943"
         style="stop-color:#FFFBCF"
         id="stop333" /><stop
         offset="0.229"
         style="stop-color:#FFFABC"
         id="stop335" /><stop
         offset="0.2636"
         style="stop-color:#FFF9A0"
         id="stop337" /><stop
         offset="0.2981"
         style="stop-color:#FFF77C"
         id="stop339" /><stop
         offset="0.3325"
         style="stop-color:#FFF550"
         id="stop341" /><stop
         offset="0.3663"
         style="stop-color:#FFF31D"
         id="stop343" /><stop
         offset="0.3814"
         style="stop-color:#FFF204"
         id="stop345" /><stop
         offset="0.6753"
         style="stop-color:#FCAF17"
         id="stop347" /><stop
         offset="0.9845"
         style="stop-color:#F15A22"
         id="stop349" /><stop
         offset="1"
         style="stop-color:#F15A22"
         id="stop351" /></linearGradient></g></svg>