<?xml version="1.0" encoding="UTF-8" standalone="no"?>
<svg
   xmlns:dc="http://purl.org/dc/elements/1.1/"
   xmlns:cc="http://creativecommons.org/ns#"
   xmlns:rdf="http://www.w3.org/1999/02/22-rdf-syntax-ns#"
   xmlns:svg="http://www.w3.org/2000/svg"
   xmlns="http://www.w3.org/2000/svg"
   version="1.1"
   id="svg2"
   xml:space="preserve"
   width="682.66669"
   height="512"
   viewBox="0 0 682.66669 512"><metadata
     id="metadata8"><rdf:RDF><cc:Work
         rdf:about=""><dc:format>image/svg+xml</dc:format><dc:type
           rdf:resource="http://purl.org/dc/dcmitype/StillImage" /><dc:title></dc:title></cc:Work></rdf:RDF></metadata><defs
     id="defs6"><filter
       style="color-interpolation-filters:sRGB;"
       id="filter48"><feColorMatrix
         values="0.21 0.72 0.072 0 0 0.21 0.72 0.072 0 0 0.21 0.72 0.072 0 0 0 0 0 1 0 "
         id="feColorMatrix46"
         result="fbSourceGraphic" /><feColorMatrix
         result="fbSourceGraphicAlpha"
         in="fbSourceGraphic"
         values="0 0 0 -1 0 0 0 0 -1 0 0 0 0 -1 0 0 0 0 1 0"
         id="feColorMatrix50" /><feColorMatrix
         id="feColorMatrix52"
         values="0.21 0.72 0.072 0 0 0.21 0.72 0.072 0 0 0.21 0.72 0.072 0 0 0 0 0 1 0 "
         in="fbSourceGraphic"
         result="fbSourceGraphic" /><feColorMatrix
         result="fbSourceGraphicAlpha"
         in="fbSourceGraphic"
         values="0 0 0 -1 0 0 0 0 -1 0 0 0 0 -1 0 0 0 0 1 0"
         id="feColorMatrix54" /><feColorMatrix
         id="feColorMatrix56"
         values="0.21 0.72 0.072 0 0 0.21 0.72 0.072 0 0 0.21 0.72 0.072 0 0 0 0 0 1 0 "
         in="fbSourceGraphic"
         result="fbSourceGraphic" /><feColorMatrix
         result="fbSourceGraphicAlpha"
         in="fbSourceGraphic"
         values="0 0 0 -1 0 0 0 0 -1 0 0 0 0 -1 0 0 0 0 1 0"
         id="feColorMatrix58" /><feColorMatrix
         id="feColorMatrix60"
         values="0.21 0.72 0.072 0 0 0.21 0.72 0.072 0 0 0.21 0.72 0.072 0 0 0 0 0 1 0 "
         in="fbSourceGraphic"
         result="fbSourceGraphic" /><feColorMatrix
         result="fbSourceGraphicAlpha"
         in="fbSourceGraphic"
         values="0 0 0 -1 0 0 0 0 -1 0 0 0 0 -1 0 0 0 0 1 0"
         id="feColorMatrix62" /><feColorMatrix
         id="feColorMatrix64"
         values="0.21 0.72 0.072 0 0 0.21 0.72 0.072 0 0 0.21 0.72 0.072 0 0 0 0 0 1 0 "
         in="fbSourceGraphic" /></filter></defs><g
     id="g10"
     transform="matrix(1.3333333,0,0,-1.3333333,0,512)"><g
       id="g12"
       style="filter:url(#filter48)"><g
         id="g14"
         transform="matrix(1,0,0,-1,0,384)" /><path
         d="m 149.027,225.918 18.004,-18.148 32.949,-68.856 -2.566,-5.527 h 23.477 l -9.469,29.199 20.125,-22.488 -6.117,-6.907 h 31.566 l -28.016,37.684 23.844,25.66 -50.383,14.403 18.649,-16.782 -14.008,-16.769 -12.961,35.793 z"
         style="fill:#ffffff;fill-opacity:1;fill-rule:evenodd;stroke:none"
         id="path22" /><path
         d="m 360.527,224.23 -104.324,-26.925 9.875,-5.727 -1.949,-28.023 c 7.559,-1.602 14.355,-5.184 19.949,-10.149 l 1.379,5.141 20.469,0.683 10.051,21.5 -25.504,-2.964 2.828,10.062 26.625,4.051 2.625,-28.274 21.75,44.899 z"
         style="fill:#ffffff;fill-opacity:1;fill-rule:evenodd;stroke:none"
         id="path24" /><path
         d="m 254.629,160.953 c -4.438,0 -8.688,-0.703 -12.676,-2 l 12.727,-17.672 c 10.843,-0.715 21.121,-10.004 21.121,-22.277 0,-12.777 -9.742,-22.375 -21.172,-22.375 -11.434,0 -21.176,9.598 -21.176,22.375 0,4.461 1.192,8.519 3.223,11.926 l -21.848,0.074 c -1.144,-3.824 -1.777,-7.844 -1.777,-12 0,-22.727 18.375,-41.973 41.578,-41.973 23.199,0 41.547,19.246 41.547,41.973 0,22.726 -18.348,41.949 -41.547,41.949 z"
         style="fill:#ffffff;fill-opacity:1;fill-rule:nonzero;stroke:none"
         id="path26" /><path
         d="m 49.426,304.227 c 40.472,-20.184 52.25,-24.145 81.824,-39.227 28.227,-14.395 78.734,-31.504 87.977,-47.773 l -92.403,24.199 c -46.73,16.246 -66.156,38.605 -77.398,62.801 z"
         style="fill:#ffffff;fill-opacity:1;fill-rule:nonzero;stroke:none"
         id="path28" /><path
         d="M 461.051,304.125 C 449.805,279.934 430.379,257.574 383.648,241.324 L 291.25,217.125 c 9.238,16.273 59.746,33.383 87.977,47.773 29.574,15.082 41.347,19.047 81.824,39.227 z"
         style="fill:#ffffff;fill-opacity:1;fill-rule:nonzero;stroke:none"
         id="path30" /><path
         d="m 85.375,252.949 36.801,-15.426 34.699,-33.347 c -44.387,11.996 -61.66,30.23 -71.5,48.773 z"
         style="fill:#ffffff;fill-opacity:1;fill-rule:nonzero;stroke:none"
         id="path32" /><path
         d="m 425.074,252.852 c -9.84,-18.547 -27.086,-36.778 -71.472,-48.778 l 34.699,33.352 z"
         style="fill:#ffffff;fill-opacity:1;fill-rule:nonzero;stroke:none"
         id="path34" /><path
         d="m 122.852,209.398 c 17.113,-7.121 33.078,-13.445 37.898,-12.25 l 9.5,-19.972 c -24.973,7.449 -40.426,18.164 -47.398,32.222 z"
         style="fill:#ffffff;fill-opacity:1;fill-rule:nonzero;stroke:none"
         id="path36" /><path
         d="m 387.625,209.324 c -6.973,-14.058 -22.426,-24.801 -47.398,-32.25 l 9.5,19.977 c 4.82,-1.196 20.785,5.152 37.898,12.273 z"
         style="fill:#ffffff;fill-opacity:1;fill-rule:nonzero;stroke:none"
         id="path38" /><path
         d="m 154.398,175.926 c 5.829,-2.696 12.282,-5.039 20.25,-6.75 0,0 9.102,-17.211 9.375,-17.903 -11.75,5.403 -20.75,14.93 -29.625,24.653 z"
         style="fill:#ffffff;fill-opacity:1;fill-rule:nonzero;stroke:none"
         id="path40" /><path
         d="m 356.074,175.852 c -8.871,-9.723 -17.871,-19.278 -29.625,-24.676 0.278,0.687 9.375,17.926 9.375,17.926 7.969,1.711 14.426,4.054 20.25,6.75 z"
         style="fill:#ffffff;fill-opacity:1;fill-rule:nonzero;stroke:none"
         id="path42" /><path
         d="m 297.051,149.602 18.449,-0.051 -0.125,-3 c -5.766,-2.176 -13.848,-2.867 -15.023,-2.602 -0.852,2.336 -2.024,3.875 -3.301,5.653 z"
         style="fill:#ffffff;fill-opacity:1;fill-rule:nonzero;stroke:none"
         id="path44" /></g></g></svg>