<?xml version="1.0" encoding="UTF-8" standalone="no"?>
<svg
   xmlns:dc="http://purl.org/dc/elements/1.1/"
   xmlns:cc="http://creativecommons.org/ns#"
   xmlns:rdf="http://www.w3.org/1999/02/22-rdf-syntax-ns#"
   xmlns:svg="http://www.w3.org/2000/svg"
   xmlns="http://www.w3.org/2000/svg"
   id="svg26"
   version="1.1">
  <metadata
     id="metadata32">
    <rdf:RDF>
      <cc:Work
         rdf:about="">
        <dc:format>image/svg+xml</dc:format>
        <dc:type
           rdf:resource="http://purl.org/dc/dcmitype/StillImage" />
        <dc:title></dc:title>
      </cc:Work>
    </rdf:RDF>
  </metadata>
  <defs
     id="defs30" />
  <g
     id="g24">
    <path
       id="path4"
       style="fill:#ffffff"
       d="m 525.62246,108.43275 -26.397,-22.503004 15.648,-9.738 c 0.837,-0.522 1.428,-1.356 1.566,-2.328 l 5.565,-33.597 c 0.138,-0.939 -0.279,-1.809 -1.077,-2.295 l -32.241,-18.99 c -0.834,-0.522 -1.842,-0.696 -2.817,-0.555 l -47.856,7.338 c -0.312,0.033 -0.555,0.207 -0.765,0.348 l 5.949,1.041 c 1.041,0.21 1.737,1.182 1.563,2.226 l -4.938,29.388 6.435,62.637004 c 0.105,0.834 0.834,1.494 1.668,1.425 l 23.301,-2.052 c 0.837,-0.069 1.497,-0.798 1.497,-1.668 l -0.939,-30.189004 1.113,-0.207 21.318,32.829004 c 0.489,0.765 1.428,1.044 2.262,0.696 l 28.866,-12.207 c 0.696,-0.279 0.834,-1.113 0.279,-1.599 z m -36.066,-37.179004 -18.258,2.955 -0.939,-31.857 22.362,7.896 z"
       class="st0" />
    <path
       id="path6"
       style="fill:#ffffff"
       d="m 428.83346,94.449746 -34.641,5.115 -2.469,-17.007 27.963,4.242 c 0.591,0.105 1.182,-0.348 1.251,-0.939 l 2.436,-18.606 c 0.069,-0.591 -0.348,-1.113 -0.975,-1.113 l -28.761,-0.453 4.347,-15.999 31.926,9.669 c 0.558,0.174 1.182,-0.207 1.251,-0.765 l 3.861,-22.989 c 0.105,-0.591 -0.312,-1.182 -0.939,-1.32 l -61.176,-10.644 c -0.624,-0.102 -1.215,0.279 -1.425,0.87 l -2.295,8.07 3.792,2.052 c 1.008,0.555 1.563,1.668 1.425,2.817 l -5.913,40.272 c -0.207,1.218 -0.765,2.367 -1.668,3.234 l -9.357,8.973 4.488,27.582004 c 0.102,0.624 0.624,1.113 1.32,1.113 l 69.696,2.469 c 0.591,0.033 1.008,-0.522 0.939,-1.08 l -3.756,-24.621004 c -0.138,-0.594 -0.729,-1.011 -1.32,-0.942 z"
       class="st1" />
    <path
       id="path8"
       style="fill:#ffffff"
       d="m 363.97046,39.501746 -32.484,-17.529 c -0.87,-0.453 -1.878,-0.627 -2.85,-0.453 l -47.577,8.766 c -0.837,0.174 -1.428,0.939 -1.323,1.809 l 0.696,5.808 6.087,0.798 c 1.044,0.105 1.737,1.113 1.599,2.121 l -4.242,25.182 6.642,54.741004 c 0.105,0.834 0.87,1.461 1.74,1.356 l 23.892,-2.4 c 0.834,-0.069 1.494,-0.834 1.425,-1.671 l -1.392,-22.431004 22.851,-1.251 c 0.975,-0.069 1.914,-0.453 2.643,-1.149 l 17.424,-16.659 c 0.729,-0.696 1.182,-1.599 1.323,-2.607 l 4.728,-32.172 c 0.069,-0.903 -0.381,-1.842 -1.182,-2.259 z m -30.987,32.412 -18.156,3.165 -1.878,-30.465 23.13,7.965 z"
       class="st2" />
    <path
       id="path10"
       style="fill:#ffffff"
       d="m 276.95546,46.107746 -35.163,-4.659 c -0.765,-0.105 -1.494,0.522 -1.461,1.323 l 2.124,46.914 -27.756,1.809 9.81,-60.549 c 0.102,-0.834 -0.453,-1.566 -1.287,-1.635 l -35.091,-3.27 c -0.837,-0.069 -1.566,0.558 -1.635,1.392 l -0.105,1.599 3.894,2.991 c 0.975,0.765 1.602,1.878 1.74,3.06 l 0.21,1.74 c 0.138,1.218 -0.21,2.469 -0.942,3.408 l -6.12,7.755 -1.599,25.878 2.295,1.494 c 1.008,0.696 1.773,1.74 2.052,2.922 l 0.348,1.425 c 0.312,1.218 0.207,2.469 -0.312,3.618 l -5.844,13.179 -0.069,1.218 c -0.069,0.975 0.312,1.914 1.044,2.541004 l 20.169,18.153 c 0.732,0.66 1.671,1.044 2.679,1.077 l 44.205,1.113 c 0.972,0.036 1.911,-0.381 2.538,-1.113 l 15.579,-17.772 c 0.663,-0.765 1.113,-1.668 1.254,-2.676004 l 8.625,-51.159 c 0.243,-0.906 -0.348,-1.704 -1.182,-1.776 z"
       class="st0" />
    <path
       id="path12"
       style="fill:#ffffff"
       d="m 139.30046,36.753746 27.198,18.642 c 0.696,0.486 1.668,0.348 2.226,-0.348 l 13.251,-16.8 c 0.519,-0.66 0.417,-1.632 -0.279,-2.121 l -27.996,-21.459 c -0.765,-0.591 -1.776,-0.867 -2.748,-0.765 l -38.013,3.618 c -0.975,0.105 -1.809,0.627 -2.367,1.425 l -20.241002,30.225 c -0.45,0.693 -0.276,1.632 0.453,2.052 l 49.422002,30.117 -10.122,13.737 -26.361,-22.188 c -0.627,-0.522 -1.602,-0.417 -2.088,0.243 l -15.408002,20.52 c -0.519,0.696 -0.417,1.668 0.246,2.226 l 27.090002,23.058004 c 0.765,0.627 1.74,0.972 2.715,0.972 l 44.967,-0.765 c 0.939,-0.033 1.773,-0.591 2.157,-1.425 l 15.441,-34.953004 c 0.348,-0.834 0.069,-1.773 -0.66,-2.259 l -46.776,-30.816 z"
       class="st3" />
    <path
       id="path14"
       style="fill:#ffffff"
       d="m 588.77846,192.21375 -30.57,-43.194 c -0.66,-0.939 -1.668,-1.566 -2.781,-1.671 l -59.577,-7.269 c -1.077,-0.102 -2.226,0.315 -2.85,1.182 l -26.295,33.216 -7.371,41.769 12.45,35.856 c 0.348,1.077 1.218,1.878 2.295,2.226 l 49.734,16.242 c 1.077,0.348 2.295,0.276 3.339,-0.21 l 47.334,-21.597 c 1.008,-0.453 1.773,-1.392 2.052,-2.469 l 12.867,-50.916 c 0.279,-1.077 0.036,-2.262 -0.627,-3.165 z m -69.903,35.787 -19.998,-21.144 14.364,-24.693 26.64,7.128 3.303,26.607 z"
       class="st1" />
    <path
       id="path16"
       style="fill:#ffffff"
       d="m 459.71546,145.57575 -45.456,-10.851 c -0.903,-0.21 -1.773,0.453 -1.809,1.356 l -3.93,101.658 5.601,4.626 c 1.077,0.87 1.599,2.259 1.425,3.651 l -0.729,5.217 c -0.21,1.356 -1.08,2.538 -2.367,3.096 l -4.659,2.085 -0.279,7.374 c -0.033,0.939 0.765,1.74 1.704,1.671 l 29.598,-2.052 c 1.044,-0.072 1.911,-0.837 2.085,-1.878 l 20.208,-113.832 c 0.207,-0.939 -0.417,-1.878 -1.392,-2.121 z"
       class="st3" />
    <path
       id="path18"
       style="fill:#ffffff"
       d="m 402.57446,245.94675 -35.091,-29.109 22.257,-13.008 c 0.975,-0.555 1.671,-1.566 1.878,-2.643 l 7.758,-40.377 c 0.207,-1.08 -0.279,-2.121 -1.218,-2.679 l -45.213,-26.397 c -1.008,-0.591 -2.157,-0.801 -3.303,-0.627 l -63.855,10.296 c -1.008,0.174 -1.668,1.077 -1.563,2.052 l 8.901,76.479 15.444,44.376 22.431,-2.016 c 1.008,-0.072 1.74,-0.939 1.704,-1.95 l -1.425,-39.576 1.494,-0.315 28.623,43.683 c 0.558,0.834 1.671,1.182 2.61,0.765 l 38.289,-17.145 c 0.765,-0.279 0.906,-1.287 0.279,-1.809 z m -48.585,-50.013 -23.373,5.427 -1.32,-37.632 27.684,7.479 z"
       class="st0" />
    <path
       id="path20"
       style="fill:#ffffff"
       d="m 294.76046,255.54675 -38.778,-111.327 c -0.348,-1.008 -1.287,-1.74 -2.364,-1.878 l -53.037,-5.427 c -1.008,-0.102 -1.983,0.558 -2.295,1.53 l -17.496,60.411 13.008,64.41 11.304,2.121 c 0.972,0.173 1.878,-0.45 2.052,-1.425 l 4.068,-24.207 35.544,-5.355 6.018,29.039 c 0.207,0.976 1.146,1.6 2.121,1.429 l 38.673,-7.305 c 0.939,-0.174 1.497,-1.113 1.182,-2.016 z m -78.111,-47.787 5.772,-34.293 11.895,0.939 7.128,34.224 z"
       class="st1" />
    <path
       id="path22"
       style="fill:#ffffff"
       d="m 159.16046,142.93275 c -0.21,-1.044 -1.08,-1.842 -2.121,-1.983 l -29.112,-3.894 c -1.077,-0.141 -2.121,0.381 -2.607,1.32 l -19.302,37.317 -13.287002,-39.576 c -0.348,-1.008 -1.251,-1.773 -2.328,-1.914 l -26.955,-3.582 c -1.044,-0.105 -2.052,0.453 -2.469,1.425 l -47.403,110.946 c -0.384,0.903 0.036,1.947 0.939,2.364 l 43.368,18.501 c 0.87,0.384 1.878,-0.069 2.157,-1.008 l 20.415,-66.636 19.128,34.362 c 0.417002,0.765 1.461002,0.834 1.983002,0.174 l 26.292,-32.31 4.14,69.105 c 0.033,0.939 0.939,1.598 1.842,1.425 l 46.95,-9.702 c 0.975,-0.21 1.602,-1.149 1.428,-2.121 z"
       class="st2" />
  </g>
</svg>
