<?xml version="1.0" encoding="UTF-8" standalone="no"?>
<svg
   xmlns:dc="http://purl.org/dc/elements/1.1/"
   xmlns:cc="http://creativecommons.org/ns#"
   xmlns:rdf="http://www.w3.org/1999/02/22-rdf-syntax-ns#"
   xmlns:svg="http://www.w3.org/2000/svg"
   xmlns="http://www.w3.org/2000/svg"
   version="1.1"
   id="Layer_1"
   x="0px"
   y="0px"
   width="608.354px"
   height="188.245px"
   viewBox="0 0 608.354 188.245"
   enable-background="new 0 0 608.354 188.245"
   xml:space="preserve"><metadata
     id="metadata179"><rdf:RDF><cc:Work
         rdf:about=""><dc:format>image/svg+xml</dc:format><dc:type
           rdf:resource="http://purl.org/dc/dcmitype/StillImage" /><dc:title></dc:title></cc:Work></rdf:RDF></metadata><defs
     id="defs177"><filter
       style="color-interpolation-filters:sRGB;"
       id="filter187"><feColorMatrix
         values="0.21 0.72 0.072 0 0 0.21 0.72 0.072 0 0 0.21 0.72 0.072 0 0 0 0 0 1 0 "
         id="feColorMatrix185" /></filter></defs><g
     id="g172"
     style="filter:url(#filter187);fill:#ffffff"><g
       id="g170"
       style="fill:#ffffff"><g
         id="g21"
         style="fill:#ffffff"><linearGradient
           id="SVGID_1_"
           gradientUnits="userSpaceOnUse"
           x1="445.1621"
           y1="119.1631"
           x2="466.1683"
           y2="0.0312"><stop
             offset="0"
             style="stop-color:#FFFFFF"
             id="stop2" /><stop
             offset="0.0844"
             style="stop-color:#FFFEF6"
             id="stop4" /><stop
             offset="0.2237"
             style="stop-color:#FFFCDD"
             id="stop6" /><stop
             offset="0.4008"
             style="stop-color:#FEF8B4"
             id="stop8" /><stop
             offset="0.6086"
             style="stop-color:#FEF37B"
             id="stop10" /><stop
             offset="0.8394"
             style="stop-color:#FDEC34"
             id="stop12" /><stop
             offset="0.9946"
             style="stop-color:#FDE700"
             id="stop14" /></linearGradient><path
           d="m 412.55808,55.412844 c -7.658,0.72 -14.052,2.741 -20.313,0.204 -1.747,-6.172 4.689,-25.85 10.976,-33.57 5.701,0.658 9.851,4.719 14.152,7.438 0.744,-0.285 0.938,-0.303 1.045,-0.409 7.923,-7.937 7.27,-11.637 -2.831,-16.168 -2.27,-1.018 -4.518,-2.084 -7.175,-3.3129995 -1.071,0.8929995 -2.181,1.8219995 -3.295,2.7469995 -5.236,4.346 -10.377,8.816 -15.763,12.97 -1.961,1.512 -3.318,3.077 -3.968,5.461 -4.794,17.604 -5.867,35.488 -2.909,53.413 1.521,9.211 5.441,17.808996 11.192,25.353996 3.077,4.038 4.471,4.16 8.54,1.068 5.415,-4.115 11.599,-6.453 18.156,-7.934 2.94,-0.664 5.852,-1.298 7.736,-4.033996 0.31,-0.448 1.118,-0.553 1.688,-0.813 2.566,5.062996 1.981,8.057996 -4.016,20.410996 6.355,0.754 12.535,1.486 19.524,2.316 -1.614,-7.166 -3.747,-13.912 -3.289,-21.091996 0.448,-7.043 -0.789,-14.168 0.601,-21.689 1.271,0.535 2.361,0.667 2.914,1.281 3.8,4.221 7.391,8.581 8.653,14.361 1.563,7.146996 3.372,14.245996 4.737,21.429996 0.514,2.697 0.083,5.572 0.083,8.486 12.164,2.732 24.451,5.575 36.79,8.166 1.569,0.33 3.609,-0.291 5.093,-1.096 3.643,-1.978 6.871,-4.857 10.664,-6.39 5.61,-2.265 7.42,-6.819 8.646,-11.905 3.084,-12.790996 1.345,-25.178996 -4.015,-37.003996 -2.25,-4.966 -5.111,-9.742 -8.286,-14.182 -7.244,-10.135 -12.003,-21.102 -12.69,-33.643 -0.094,-1.718 0.207,-3.458 0.395,-6.212 6.864,4.26 12.918,7.819 18.4,12.729 3.083,-2.916 5.083,-6.152 6.163,-10.203 -4.752,-4.004 -9.23,-7.963 -13.913,-11.662 -3.633,-2.8709995 -4.308,-2.6719995 -7.762,0.117 -4.272,3.449 -8.587,6.846 -12.931,10.204 -1.769,1.368 -3.466,2.758 -3.261,5.249 0.79,9.588 0.791,19.366 5.938,28.016 3.659,6.148 7.582,12.144 11.138,18.352 4.896,8.549 9.096,17.38 10.399,27.347996 0.971,7.429 -0.578,13.897 -6.302,19.019 -2.172,1.943 -4.465,3.753 -6.992,5.865 -3.567,-3.609 -5.383,-7.164 -4.805,-11.581 0.605,-4.616 1.463,-9.202 2.299,-13.784 1.279,-7.015996 1.148,-13.919996 -1.853,-20.499996 -0.988,-2.169 -2.562,-4.071 -4.237,-6.668 -3.063,5.982 -5.672,11.08 -8.443,16.494 3.521,3.071 3.078,7.388 2.546,11.446996 -0.635,4.832 -0.975,9.552 -0.005,14.373 0.335,1.668 -0.071,3.484 -0.165,5.89 -4.086,-2.097 -5.442,-5.365 -7.194,-8.192 -6.459,-10.43 -10.718,-21.739996 -13.467,-33.683996 -0.396,-1.719 -2.09,-3.139 -3.524,-5.185 0.563,-0.548 1.384,-1.485 2.341,-2.257 19.938,-16.073 20.264,-45.229 2.573,-62.7409995 -3.533,-3.499 -4.457,-3.585 -8.571,-0.73 -2.318,1.6069995 -4.452,3.4839995 -6.666,5.2419995 -1.122,0.892 -2.238,1.791 -3.71,2.969 -0.593,-1.422 -1.02,-2.272 -1.302,-3.168 -0.288,-0.916 -0.435,-1.877 -0.675,-2.963 -4.307,-0.135 -7.284,2.474 -10.297,3.848 0.256,12.918 0.784,25.52 0.676,38.115 -0.105,12.384 -0.857,24.763 -1.332,37.312 -4.401,0 -8.173,0 -11.959,0 -0.508,0.914 -1.039,1.588 -1.279,2.354 -0.921,2.936 -1.846,5.898 -5.536,6.277 -4.104,0.421 -8.211,0.143 -10.901,-3.47 -2.361,-3.172 -4.8,-6.489 -6.194,-10.13 -2.231,-5.824 -4.639,-11.799 -3.332,-18.63 4.592,-1.646 9.236,-0.571 14.604,-0.599 1.814,-2.989 3.828,-6.317 6.496,-10.725 z m 41.022,-39.926 c 8.474,9.801 12.485,20.383 10.41,32.797 -1.537,9.19 -9.463,20.096 -15.079,21.419 -4.685,-2.908 -6.387,-7.511 -6.536,-12.692 -0.207,-7.144 -0.358,-14.314 0.022,-21.443 0.426,-7.955 3.638,-14.685 11.183,-20.081 z"
           id="path17"
           style="clip-rule:evenodd;fill:#ffffff;fill-rule:evenodd" /></g><g
         id="g42"
         style="fill:#ffffff"><linearGradient
           id="SVGID_2_"
           gradientUnits="userSpaceOnUse"
           x1="135.6411"
           y1="127.3242"
           x2="113.6777"
           y2="2.7634"><stop
             offset="0"
             style="stop-color:#FFFFFF"
             id="stop23" /><stop
             offset="0.0844"
             style="stop-color:#FFFEF6"
             id="stop25" /><stop
             offset="0.2237"
             style="stop-color:#FFFCDD"
             id="stop27" /><stop
             offset="0.4008"
             style="stop-color:#FEF8B4"
             id="stop29" /><stop
             offset="0.6086"
             style="stop-color:#FEF37B"
             id="stop31" /><stop
             offset="0.8394"
             style="stop-color:#FDEC34"
             id="stop33" /><stop
             offset="0.9946"
             style="stop-color:#FDE700"
             id="stop35" /></linearGradient><path
           d="m 161.43408,120.30984 c -1.064,-1.406 -1.449,-2.166 -2.049,-2.666 -3.066,-2.553 -4.164,-5.912 -4.215,-9.754 -0.293,-22.149996 -0.598,-44.299996 -0.89,-66.449996 -0.116,-8.795 3.804,-15.651 10.209,-21.355 1.871,-1.665 3.449,-1.43 5.292,0.035 8.137,6.465 11.318,16.384 8.603,26.396 -0.73,2.696 -1.176,5.556 -1.193,8.343 -0.093,15.17 -0.009,30.34 0.01,45.509996 0.006,5.299 0.001,10.596 0.001,15.995 2.835,0.649 12.17,-0.083 16.011,-1.387 -1.257,-2.025 -2.999,-3.907 -3.634,-6.108 -0.67,-2.325 -0.344,-4.955 -0.348,-7.453 -0.029,-14.335996 -0.158,-28.673996 0.032,-43.008996 0.068,-5.132 0.828,-10.267 1.456,-15.379 1.07,-8.711 -0.314,-16.46 -7.422,-22.549 -3.767,-3.227 -7.108,-6.95 -10.8,-10.6069995 -6.528,2.5389995 -11.432,7.4169995 -17.816,11.2969995 -0.327,-3.438 -0.57,-5.999 -0.892,-9.388 -4.448,2.461 -8.418,4.657 -12.703,7.026 3.204,7.009 1.95,14.397 2.002,21.636 0.161,22.504 0.009,45.01 0.11,67.513996 0.019,4.097 -1.305,7.509 -3.903,10.484 -1.325,1.518 -2.922,2.814 -5.222,2.221 -2.5,-0.645 -3.97,-2.324 -4.679,-4.734 -0.14,-0.476 -0.223,-0.979 -0.25,-1.475 -0.303,-5.646 -0.816,-11.293 -0.843,-16.941996 -0.119,-26.339 -0.096,-52.679 -0.147,-79.018 -0.004,-1.938 -0.203,-3.873 -0.355,-6.602 -4.454,1.967 -8.18,3.611 -12.356,5.454 2.593,13.795 1.419,27.767 1.563,41.696 0.19,18.336 0.019,36.675 0.186,55.011996 0.036,3.896 -0.936,7.222 -3.362,10.157 -1.845,2.234 -3.5,2.539 -5.406,0.309 -3.447,-4.032 -6.97,-8.133 -9.587003,-12.705 -3.126,-5.463 -5.328,-11.455 -7.947,-17.208996 -0.747,-1.639 -1.555,-3.25 -2.291,-4.783 3.755,-4.59 7.731,-8.869 11.034,-13.618 5.521003,-7.941 8.488003,-16.793 8.644003,-26.627 0.12,-7.615 -0.566,-14.965 -3.949,-21.89 -0.365,-0.747 -0.594,-1.604 -1.11,-2.226 -4.016003,-4.828 -8.086003,-9.612 -12.351003,-14.66 -2.504,1.605 -4.607,2.89 -6.641,4.275 -2.039,1.391 -4.008,2.885 -6.723,4.851 -0.67,-2.69 -1.2,-4.817 -1.892,-7.593 -3.844,2.445 -7.512,4.779 -10.657,6.78 0.069,15.459 0.055,30.421 0.222,45.38 0.22,19.63 0.501,39.260996 0.937,58.886996 0.121,5.435 -0.731,10.597 -2.498,15.679 -0.366,1.055 -0.566,2.166 -1.035,4.006 6.37,-1.133 11.699,-3.594 17.96,-5.191 -5.072,-7.143 -4.302,-14.719 -4.319,-22.162 -0.012,-5.001 -0.078,-10.006 0.094,-15.001 0.063,-1.826996 0.742,-3.631996 1.292,-6.143996 3.955,3.471 5.984,6.978996 7.442,10.880996 3.029,8.111 6.043,16.227 9.109,24.322 0.513,1.354 1.258,2.619 2.092,4.328 21.125003,-7.033 42.556003,-11.07 65.184003,-13.789 z M 81.313077,81.970844 c -3.117,-2.644 -5.178,-5.722 -5.13,-10.108 0.113,-10.479 -0.078,-20.964 0.158,-31.438 0.077,-3.439 0.728,-6.971 1.769,-10.253 1.202,-3.788 3.621,-6.925 7.113,-8.989 18.520003,16.432 15.144003,46.711 -3.91,60.788 z"
           id="path38"
           style="clip-rule:evenodd;fill:#ffffff;fill-rule:evenodd" /></g><g
         id="g63"
         style="fill:#ffffff"><linearGradient
           id="SVGID_3_"
           gradientUnits="userSpaceOnUse"
           x1="578.998"
           y1="179.1025"
           x2="578.998"
           y2="7.3755"><stop
             offset="0"
             style="stop-color:#FFFFFF"
             id="stop44" /><stop
             offset="0.0844"
             style="stop-color:#FFFEF6"
             id="stop46" /><stop
             offset="0.2237"
             style="stop-color:#FFFCDD"
             id="stop48" /><stop
             offset="0.4008"
             style="stop-color:#FEF8B4"
             id="stop50" /><stop
             offset="0.6086"
             style="stop-color:#FEF37B"
             id="stop52" /><stop
             offset="0.8394"
             style="stop-color:#FDEC34"
             id="stop54" /><stop
             offset="0.9946"
             style="stop-color:#FDE700"
             id="stop56" /></linearGradient><path
           d="m 562.38808,157.24884 c 6.731,3.57 12.076,-1.052 18.03,-2.34 1.514,4.148 -3.055,6.135 -3.041,10.176 7.695,5.05 16.971,11.309 25.877,17.153 -0.354,-1.898 -1.243,-4.205 -1.558,-5.273 -1.452,-4.949 -3.531,-9.77 -4.453,-14.807 -1.371,-7.495 -2.676,-15.126 -2.753,-22.712 -0.333,-32.652 -0.344,-65.310996 -0.149,-97.963996 0.046,-7.662 -2.218,-13.977 -7.33,-19.487 -2.601,-2.805 -5.033,-5.767 -7.64,-8.567 -0.972,-1.045 -2.218,-1.834 -3.56,-2.917 -2.393,2.147 -4.492,3.993 -6.548,5.886 -3.794,3.494 -7.548,7.034 -11.346,10.523 -3.588,3.297 -3.768,4.596 -2.258,9.217 0.858,2.627 1.325,5.444 1.522,8.207 0.254,3.566 0.063,7.164 0.063,11.693 4.88,-2.956 8.596,-5.936 11.003,-9.717 1.379,-2.168 0.723,-5.746 0.668,-8.683 -0.055,-2.979 -0.655,-5.95 -0.701,-8.931 -0.022,-1.488 0.657,-2.988 1.112,-4.865 5.327,2.531 7.803,6.758 10.03,10.925 2.851,5.331 4.521,11.069 3.051,17.275 -0.227,0.959 -0.164,1.987 -0.231,2.983 -0.365,5.408 -1.648,9.967 -6.324,13.854 -9.32,7.746 -16.563,17.358 -20.594,28.966 -4.799,13.818996 -5.296,27.637996 1.086,41.217996 0.283,0.603 0.561,1.209 0.856,1.806 2.583,5.207 5.586,10.269 5.188,16.381 z m 15.465,-12.443 c -1.266,-2.221 -2.311,-4.239 -3.526,-6.148 -2.137,-3.356 -4.728,-6.471 -6.51,-9.997 -5.439,-10.763 -7.53,-22.021 -3.591,-33.803996 2.501,-7.478 6.799,-13.695 13.635,-17.889 1.014,-0.621 2.301,-0.798 3.981,-1.352 0.332,8.139 0.779,15.568 0.889,23.002 0.076,5.144996 -0.396,10.295996 -0.475,15.445996 -0.109,7.161 0.01,14.327 -0.151,21.487 -0.077,3.468 -0.671,6.878 -4.252,9.255 z"
           id="path59"
           style="clip-rule:evenodd;fill:#ffffff;fill-rule:evenodd" /></g><g
         id="g84"
         style="fill:#ffffff"><linearGradient
           id="SVGID_4_"
           gradientUnits="userSpaceOnUse"
           x1="245.1938"
           y1="110.8047"
           x2="245.1938"
           y2="6.8208"><stop
             offset="0"
             style="stop-color:#FFFFFF"
             id="stop65" /><stop
             offset="0.0844"
             style="stop-color:#FFFEF6"
             id="stop67" /><stop
             offset="0.2237"
             style="stop-color:#FFFCDD"
             id="stop69" /><stop
             offset="0.4008"
             style="stop-color:#FEF8B4"
             id="stop71" /><stop
             offset="0.6086"
             style="stop-color:#FEF37B"
             id="stop73" /><stop
             offset="0.8394"
             style="stop-color:#FDEC34"
             id="stop75" /><stop
             offset="0.9946"
             style="stop-color:#FDE700"
             id="stop77" /></linearGradient><path
           d="m 248.60408,97.321844 c 3.764,6.104996 5.847,13.129996 12.845,16.270996 2.104,-1.538 4.068,-2.777 5.802,-4.282 3.852,-3.34 8.268,-5.283 13.164,-6.719 6.323,-1.852 9.935,-6.287996 10.722,-11.707996 -4.684,-2.203 -5.539,-2.239 -11.507,-0.397 0.066,2.436 1.456,5.017 -0.796,7.414 -3.559,3.788996 -9.391,4.246996 -13.441,0.852 -3.843,-3.223 -6.108,-7.573 -7.882,-12 -1.905,-4.756 -2.985,-9.864 -4.146,-14.883 -0.431,-1.855 -0.069,-3.894 -0.069,-5.859 5.929,-2.426 11.269,-0.174 16.695,0.236 2.553,-3.671 5.07,-7.291 8.263,-11.882 -4.819,0.94 -8.704,2.07 -12.65,2.361 -3.894,0.288 -7.952,0.798 -11.691,-0.783 -1.159,-7.732 4.452,-29.057 9.142,-34.109 4.498,1.275 8.225,4.348 12.236,6.887 1.436,0.908 2.984,1.637 4.662,2.545 0.803,-1.451 1.311,-2.283 1.736,-3.156 3.938,-8.09 3.705,-8.854 -4.309,-13.056 -3.207,-1.681 -6.488,-3.22 -10.289,-5.0959995 -1.611,1.8129995 -3.373,3.9559995 -5.302,5.9349995 -3.818,3.916 -7.814,7.663 -11.561,11.646 -1.42,1.51 -2.978,3.339 -3.405,5.261 -2.421,10.873 -4.796,21.771 -4.711,33.021 0.056,7.536 1.184,14.896 3.132,22.154 0.251,0.938 0.476,1.884 0.862,3.424 -3.266,0.256 -6.153,0.482 -9.391,0.736 -0.106,1.215 -0.507,2.386 -0.239,3.377 0.769,2.844 0.626,5.399996 -2.021,7.088996 -2.714,1.731 -5.735,1.892 -8.559,0.298 -5.328,-3.007996 -9.746,-7.069996 -12.409,-12.638996 -3.18,-6.648 -5.255,-13.632 -5.349,-21.11 -0.096,-7.657 -0.613,-15.314 1.086,-22.898 1.924,-8.578 6.111,-16.028 10.754,-23.537 6.088,2.424 10.895,5.786 15.209,10.259 2.754,-2.325 3.873,-5.287 4.742,-8.241 0.301,-1.022 -0.29,-2.818 -1.109,-3.562 -2.188,-1.982 -4.619,-3.748 -7.143,-5.292 -2.651,-1.621 -5.521,-2.885 -8.977,-4.653 -0.633,0.724 -1.897,1.771 -2.653,3.105 -2.578,4.552 -5.935,8.387 -9.771,11.925 -8.072,7.445 -12.12,16.804 -13.306,27.706 -0.904,8.321 -1.362,16.553 0.027,24.845 1.459,8.69 4.951,16.452 9.907,23.711996 3.322,4.867 7.456,8.354 13.007,10.33 6.415,2.283 12.676,1.029 17.271,-4.111 2.538,-2.839 4.641,-6.072 6.89,-9.163996 1.452,-1.998 1.412,-2.027 4.532,-2.252 z"
           id="path80"
           style="clip-rule:evenodd;fill:#ffffff;fill-rule:evenodd" /></g><g
         id="g105"
         style="fill:#ffffff"><linearGradient
           id="SVGID_5_"
           gradientUnits="userSpaceOnUse"
           x1="356.6748"
           y1="113.4883"
           x2="356.6748"
           y2="2.5688"><stop
             offset="0"
             style="stop-color:#FFFFFF"
             id="stop86" /><stop
             offset="0.0844"
             style="stop-color:#FFFEF6"
             id="stop88" /><stop
             offset="0.2237"
             style="stop-color:#FFFCDD"
             id="stop90" /><stop
             offset="0.4008"
             style="stop-color:#FEF8B4"
             id="stop92" /><stop
             offset="0.6086"
             style="stop-color:#FEF37B"
             id="stop94" /><stop
             offset="0.8394"
             style="stop-color:#FDEC34"
             id="stop96" /><stop
             offset="0.9946"
             style="stop-color:#FDE700"
             id="stop98" /></linearGradient><path
           d="m 333.04808,115.92084 c 5.878,-1.906 11.715,-3.908 17.352,-7.511 -3.828,-4.367 -3.743,-9.445996 -4.022,-14.341996 -0.283,-4.978 -0.117,-9.983 -0.073,-14.976 0.011,-1.262 0.308,-2.521 0.601,-4.752 2.51,1.516 4.4,2.657 6.713,4.053 7.174,-1.256 12.336,-6.031 16.827,-11.739 7.769,-9.874 9.755,-21.315 8.546,-33.445 -0.272,-2.729 -1.245,-5.659 -2.743,-7.94 -3.905,-5.95 -8.074,-11.759 -12.548,-17.2909995 -2.532,-3.131 -4.136,-2.89 -7.075,-0.123 -2.303,2.1659995 -4.455,4.4909995 -6.752,6.6619995 -1.003,0.946 -2.202,1.685 -3.822,2.899 -0.778,-3.592 -1.383,-6.387 -2.175,-10.0489995 -4.669,3.3129995 -8.64,6.1319995 -12.557,8.9119995 1.4,2.752 3.028,4.956 3.631,7.412 0.618,2.522 0.247,5.291 0.286,7.953 0.27,18.283 0.638,36.566 0.743,54.851 0.038,6.635 -0.494,13.277 -0.915,19.905996 -0.091,1.438 -0.764,2.855 -1.271,4.246 -0.541,1.488 -1.202,2.932 -1.812,4.395 l -1.085,1.582 z m 23.439,-99.471996 c 1.841,1.791 3.431,2.994 4.591,4.523 5.678,7.48 7.524,16.069 7.125,25.303 -0.406,9.385 -4.351,16.915 -11.723,22.644 -4.133,3.212 -7.919,2.053 -9.643,-2.924 -0.423,-1.221 -0.478,-2.606 -0.501,-3.92 -0.072,-4.151 -0.175,-8.31 -0.035,-12.458 0.2,-5.959 0.111,-11.992 1.061,-17.845 0.935,-5.766 4.087,-10.688 9.125,-15.323 z"
           id="path101"
           style="clip-rule:evenodd;fill:#ffffff;fill-rule:evenodd" /></g><g
         id="g126"
         style="fill:#ffffff"><linearGradient
           id="SVGID_6_"
           gradientUnits="userSpaceOnUse"
           x1="536.3936"
           y1="146.8223"
           x2="536.3936"
           y2="9.3257"><stop
             offset="0"
             style="stop-color:#FFFFFF"
             id="stop107" /><stop
             offset="0.0844"
             style="stop-color:#FFFEF6"
             id="stop109" /><stop
             offset="0.2237"
             style="stop-color:#FFFCDD"
             id="stop111" /><stop
             offset="0.4008"
             style="stop-color:#FEF8B4"
             id="stop113" /><stop
             offset="0.6086"
             style="stop-color:#FEF37B"
             id="stop115" /><stop
             offset="0.8394"
             style="stop-color:#FDEC34"
             id="stop117" /><stop
             offset="0.9946"
             style="stop-color:#FDE700"
             id="stop119" /></linearGradient><path
           d="m 529.27108,17.357844 c 0.699,5.967 1.725,10.855 1.769,15.754 0.188,20.814 0.161,41.632 0.054,62.448 -0.056,10.763996 -0.303,21.533996 -1.947,32.212996 -0.594,3.859 -1.788,7.414 -4.618,10.268 -0.667,0.673 -1.189,1.488 -2.085,2.629 8.24,3.09 16.086,6.033 24.766,9.289 -0.462,-1.621 -0.468,-2.316 -0.81,-2.74 -3.674,-4.548 -4.409,-9.762 -4.31,-15.464 0.134,-7.634 -0.602,-15.28 -0.597,-22.921 0.006,-9.304996 0.542,-18.608996 0.587,-27.913996 0.101,-20.649 0.045,-41.3 0.028,-61.95 -10e-4,-1.916 -0.181,-3.832 -0.315,-6.508 -4.882,1.907 -8.965,3.505 -12.522,4.896 z"
           id="path122"
           style="clip-rule:evenodd;fill:#ffffff;fill-rule:evenodd" /></g><g
         id="g147"
         style="fill:#ffffff"><linearGradient
           id="SVGID_7_"
           gradientUnits="userSpaceOnUse"
           x1="300.1514"
           y1="120.7549"
           x2="300.1514"
           y2="24.6367"><stop
             offset="0"
             style="stop-color:#FFFFFF"
             id="stop128" /><stop
             offset="0.0844"
             style="stop-color:#FFFEF6"
             id="stop130" /><stop
             offset="0.2237"
             style="stop-color:#FFFCDD"
             id="stop132" /><stop
             offset="0.4008"
             style="stop-color:#FEF8B4"
             id="stop134" /><stop
             offset="0.6086"
             style="stop-color:#FEF37B"
             id="stop136" /><stop
             offset="0.8394"
             style="stop-color:#FDEC34"
             id="stop138" /><stop
             offset="0.9946"
             style="stop-color:#FDE700"
             id="stop140" /></linearGradient><path
           d="m 269.78308,117.97184 c 1.499,1.396 2.308,2.717 3.438,3.109 7.028,2.44 13.808,4.662 21.349,0.426 11.252,-6.322 17.444,-16.025 20.903,-27.886996 1.958,-6.713 3.152,-13.568 2.786,-20.664 -0.28,-5.43 -0.056,-10.886 -0.056,-16.626 3.274,-0.323 5.955,-0.588 9.181,-0.906 -2.029,-4.17 -6.202,-1.748 -8.902,-4.65 -0.618,-4.48 -0.612,-9.8 0.214,-14.985 0.27,-1.691 2.618,-3.147 4.202,-4.491 0.791,-0.672 2.002,-0.848 3.711,-1.518 -1.194,-0.92 -1.807,-1.777 -2.534,-1.891 -4.609,-0.713 -9.073,1.893 -10.726,6.333 -0.908,2.44 -1.704,4.873 -1.31,7.69 0.428,3.059 0.097,6.224 0.097,9.783 -2.567,0.152 -4.513,0.18 -6.436,0.405 -1.907,0.224 -3.792,0.645 -5.818,1.003 0.156,1.507 0.254,2.457 0.385,3.725 -1.006,0 -1.984,0.11 -2.932,-0.018 -7.234,-0.975 -8.056,0.688 -10.229,5.945 -2.348,5.679 -0.75,11.4 3.549,14.322 8.309,5.646 15.416,2.298 16.479,-7.728 0.402,-3.793 -0.331,-7.266 -2.877,-10.357 1.823,-2.694 3.856,-4.313 7.769,-3.613 0.335,1.705 0.984,3.568 1.022,5.444 0.206,10.309 0.343,20.606 -1.887,30.792 -1.285,5.865 -4.17,10.858996 -7.764,15.454996 -2.034,2.602 -4.549,4.867 -7.038,7.066 -6.136,5.42 -12.128,5.143 -17.917,-0.658 -1.089,-1.091 -1.842,-1.631 -2.624,-1.59 -0.682,0.036 -1.385,0.515 -2.353,1.457 -1.268,1.238 -2.237,2.784 -3.682,4.627 z m 28,-43.118996 c -6.34,-4.182 -7.381,-8.633 -3.363,-13.427 7.331,3.252 8.971,9.3 3.363,13.427 z"
           id="path143"
           style="clip-rule:evenodd;fill:#ffffff;fill-rule:evenodd" /></g><g
         id="g168"
         style="fill:#ffffff"><linearGradient
           id="SVGID_8_"
           gradientUnits="userSpaceOnUse"
           x1="32.96"
           y1="169.5059"
           x2="32.96"
           y2="6.1196"><stop
             offset="0"
             style="stop-color:#FFFFFF"
             id="stop149" /><stop
             offset="0.0844"
             style="stop-color:#FFFEF6"
             id="stop151" /><stop
             offset="0.2237"
             style="stop-color:#FFFCDD"
             id="stop153" /><stop
             offset="0.4008"
             style="stop-color:#FEF8B4"
             id="stop155" /><stop
             offset="0.6086"
             style="stop-color:#FEF37B"
             id="stop157" /><stop
             offset="0.8394"
             style="stop-color:#FDEC34"
             id="stop159" /><stop
             offset="0.9946"
             style="stop-color:#FDE700"
             id="stop161" /></linearGradient><path
           d="m 3.2630772,172.64184 c 9.8749998,-5.936 19.0269998,-11.435 29.0529998,-17.459 -2.487,-1.227 -4.29,-1.694 -5.479,-2.816 -1.384,-1.305 -3.145,-3.172 -3.169,-4.819 -0.235,-15.956 -0.142,-31.917 -0.142,-48.814996 12.621,4.937996 18.934,-3.219 24.705,-10.901 8.953,-11.915 11.594,-25.752 12.086,-40.69 0.482,-14.608 -7.315,-24.811 -14.507,-35.687 -1.87,-2.8279995 -4.984,-2.6449995 -7.602,-1.043 -3.05,1.863 -5.808,4.205 -8.724,6.295 -1.56,1.117 -3.187,2.143 -5.507,3.691 -0.575,-3.525 -0.973,-5.969 -1.371,-8.412 -5.34,-1.487 -13.0259998,2.244 -20.1609998,10.018 6.675,3.601 7.005,9.734 6.967,16.445 -0.186,33.292 -0.075,66.586996 -0.08,99.879996 -0.001,5.939 0.6709998,11.998 -0.294,17.779 -0.896,5.37 -3.564,10.443 -5.775,16.534 z M 34.225077,21.426844 c 17.82,10.418 17.652,58.42 -4.838,70.687 -4.216,-1.681 -5.108,-5.413 -5.117,-9.39 -0.032,-15.203 -0.116,-30.411 0.231,-45.606 0.159,-6.965 4.889,-11.515 9.724,-15.691 z"
           id="path164"
           style="clip-rule:evenodd;fill:#ffffff;fill-rule:evenodd" /></g></g></g></svg>