<?xml version="1.0" encoding="UTF-8" standalone="no"?>
<svg
   xmlns:dc="http://purl.org/dc/elements/1.1/"
   xmlns:cc="http://creativecommons.org/ns#"
   xmlns:rdf="http://www.w3.org/1999/02/22-rdf-syntax-ns#"
   xmlns:svg="http://www.w3.org/2000/svg"
   xmlns="http://www.w3.org/2000/svg"
   id="svg14"
   version="1.1"
   width="240.945"
   height="66.6593">
  <metadata
     id="metadata18">
    <rdf:RDF>
      <cc:Work
         rdf:about="">
        <dc:format>image/svg+xml</dc:format>
        <dc:type
           rdf:resource="http://purl.org/dc/dcmitype/StillImage" />
        <dc:title></dc:title>
      </cc:Work>
    </rdf:RDF>
  </metadata>
  <defs
     id="defs4">
    <style
       type="text/css"
       id="style2">.fil0 {fill:#010101}
    .fil2 {fill:url(#id0);fill-rule:nonzero}
    .fil1 {fill:url(#id1);fill-rule:nonzero}
    .fil4 {fill:url(#id2);fill-rule:nonzero}
    .fil3 {fill:url(#id3);fill-rule:nonzero}</style>
    <filter
       id="filter12"
       style="color-interpolation-filters:sRGB;">
      <feColorMatrix
         id="feColorMatrix10"
         values="0.21 0.72 0.072 0 0 0.21 0.72 0.072 0 0 0.21 0.72 0.072 0 0 0 0 0 1 0 " />
    </filter>
  </defs>
  <g
     transform="translate(-930.754 -237.992)"
     id="g12"
     fill-rule="evenodd"
     style="fill:#ffffff;opacity:1;filter:url(#filter12)">
    <path
       d="m967.933 267.322h1.40625c1.67038 0 2.725-0.26375 3.34075-0.96612 0.61525-0.70375 0.879-1.93375 0.879-3.78s-0.26375-2.98875-0.96688-3.6925c-0.70312-0.615-2.02199-0.9675-3.95599-0.9675h-0.70313v9.40612zm0 14.5928c0 1.49462 0.0879 2.46187 0.3515 2.98924 0.26325 0.52738 0.70313 0.96726 1.40625 1.14313v8.17525h-17.3179v-8.17525c0.61476-0.26425 0.96738-0.70363 1.23101-1.31888 0.26312-0.61525 0.35099-1.58249 0.35099-2.8135v-21.1851c0-1.31875-0.0879-2.28625-0.35099-2.81375-0.26363-0.615-0.61625-1.05375-1.23101-1.40625v-8h19.6914c5.80225 0 9.93413 0.9675 12.2198 2.81375 2.37363 1.84625 3.604 5.09875 3.604 9.49375 0 2.90125-0.52725 5.1875-1.66987 6.85687-1.05513 1.75838-2.72513 2.90088-5.01125 3.60401 2.19825 0.52787 3.69237 1.40674 4.48337 2.54987 0.7915 1.1425 1.2305 3.25237 1.31888 6.50488v0.43987c0.0879 2.98825 0.61525 4.74662 1.66987 5.2745v8.17525h-14.9442c-0.52787-2.0215-0.7915-5.36275-0.87887-9.84575v-1.93363c0-2.63762-0.35213-4.308-0.8795-5.01112-0.61563-0.70313-1.67038-1.05525-3.25238-1.05525h-0.791v5.53813zm36.4824-7.64801h4.6587l-2.5493-16.1746-2.1094 16.1746zm-14.8569 19.9556v-8.17525c0.43937-0.088 0.87888-0.52788 1.143-1.231 0.35162-0.61525 0.61525-1.49462 0.87888-2.461l6.0655-33.8455h19.8676l6.857 33.8455c0.2636 1.05425 0.6153 1.84575 0.9673 2.54887 0.3515 0.61525 0.791 1.05513 1.2305 1.14313v8.17525h-17.5822v-8.17525c0.44-0.088 0.7917-0.44 1.0548-0.8795 0.352-0.43938 0.44-0.96675 0.44-1.5825 0-0.0879 0-0.26362-0.088-0.52738-0.088-0.3515-0.088-0.52675-0.1763-0.70262h-6.8563c0 0.17587 0 0.439-0.088 0.70262-0.088 0.35163-0.088 0.61525-0.088 0.70313 0 0.70362 0.1763 1.2315 0.5278 1.58262 0.2637 0.43938 0.791 0.61563 1.4946 0.70363v8.17525h-15.6479zm50.372-27.252v14.9444c0 1.40675 0.087 2.37399 0.3516 2.98924 0.2637 0.52738 0.6157 0.96726 1.2304 1.14313v8.17525h-13.6254v-8.17525c0.6152-0.26425 1.0547-0.70363 1.3183-1.31888 0.1764-0.61525 0.3521-1.58249 0.3521-2.8135v-21.1851c0-1.31875-0.1757-2.28625-0.3521-2.81375-0.2636-0.615-0.7031-1.05375-1.3183-1.40625v-8h18.5493l4.1309 19.5165 4.0435-19.5165h18.1097v8c-0.615 0.3525-1.055 0.79125-1.3187 1.31875-0.2638 0.615-0.3513 1.5825-0.3513 2.90125v21.1851c0 1.31937 0.088 2.19824 0.3513 2.81349 0.2637 0.61525 0.7037 1.05463 1.3187 1.31888v8.17525h-16.2637v-8.17525c0.6162-0.17587 0.9675-0.61575 1.23-1.14313 0.1775-0.61525 0.3525-1.58249 0.3525-2.98924v-14.9444l-6.241 27.252h-5.3619l-6.5059-27.252zm49.8438-0.79075c0.1762 0 0.3525 0 0.5275 0.0888h0.8787c1.5825 0 2.6388-0.3525 3.4288-1.05625 0.7037-0.615 1.0562-1.67 1.0562-3.07625 0-1.49375-0.3525-2.54875-1.0562-3.2525-0.7025-0.70375-1.67-1.055-3.0763-1.055-0.7912 0-1.4062 0-1.7587 0.0875v8.26375zm0 18.4608c0.1762 0 0.3525 0.0879 0.5275 0.0879h0.8787c1.6713 0 2.815-0.4395 3.605-1.231 0.7038-0.791 1.1425-2.10937 1.1425-3.77975 0-1.75837-0.4387-2.98875-1.3187-3.78025-0.8788-0.79112-2.1975-1.2305-3.955-1.2305h-0.88v9.93363zm-15.4713 9.582v-8.17525c0.615-0.26425 1.055-0.70363 1.3188-1.31888 0.2637-0.61525 0.3512-1.58249 0.3512-2.8135v-21.1851c0-1.31875-0.088-2.28625-0.3512-2.81375-0.2638-0.615-0.7038-1.05375-1.3188-1.40625v-8h20.0425c5.6263 0 9.5825 0.87875 11.8688 2.725 2.285 1.75875 3.4275 4.835 3.4275 9.1425 0 2.72625-0.615 4.835-1.9338 6.59325-1.23 1.6705-2.9887 2.72563-5.275 3.2535 2.6388 0.52675 4.66 1.582 5.9788 3.34025 1.3187 1.84575 1.9337 4.30662 1.9337 7.38425 0 4.8345-1.1425 8.17487-3.5162 10.1974-2.3738 2.02137-6.5063 3.07662-12.3951 3.07662h-20.1312zm56.7013-13.4498v-18.9892c0-1.5825-0.2638-2.72375-0.7025-3.4275-0.3525-0.70375-1.1438-1.055-2.11-1.055-0.9675 0-1.6713 0.35125-2.11 0.9675-0.44 0.7025-0.7038 1.845-0.7038 3.515v18.9892c0 1.67037 0.2638 2.8125 0.7038 3.51612 0.4387 0.61525 1.1425 0.96675 2.11 0.96675 0.9662 0 1.7575-0.3515 2.11-0.96675 0.4387-0.70362 0.7025-1.84575 0.7025-3.51612zm-19.6925-16.7905c0-6.15375 1.2312-10.4612 3.6925-12.835 2.55-2.37375 6.945-3.60375 13.1875-3.60375 6.2412 0 10.6362 1.23 13.0975 3.60375 2.4612 2.37375 3.6925 6.68125 3.6925 12.835v14.8565c0 6.06537-1.2313 10.3725-3.6925 12.7465-2.4613 2.374-6.7688 3.6045-13.0975 3.6045-6.33 0-10.6375-1.2305-13.1875-3.6045-2.4613-2.374-3.6925-6.68113-3.6925-12.7465v-14.8565"
       id="path8"
       fill="#000000"
       style="fill:#ffffff;opacity:1" />
  </g>
</svg>
