<?xml version="1.0" standalone="no"?>
<!DOCTYPE svg PUBLIC "-//W3C//DTD SVG 20010904//EN"
 "http://www.w3.org/TR/2001/REC-SVG-20010904/DTD/svg10.dtd">
<svg version="1.0" xmlns="http://www.w3.org/2000/svg"
 width="717.000000pt" height="95.000000pt" viewBox="0 0 717.000000 95.000000"
 preserveAspectRatio="xMidYMid meet">
<metadata>
Created by potrace 1.10, written by Peter Selinger 2001-2011
</metadata>
<g transform="translate(0.000000,95.000000) scale(0.100000,-0.100000)"
fill="#000000" stroke="none">
<path d="M91 851 c-9 -6 -16 -35 -19 -85 -6 -100 9 -126 73 -126 l45 0 0 -98
c0 -117 12 -142 67 -142 54 0 62 19 63 138 l0 102 35 0 35 0 0 -101 c0 -122 7
-139 60 -139 48 0 70 27 70 85 l0 40 50 0 50 0 0 -40 c0 -58 22 -85 69 -85 20
0 43 6 49 12 10 10 17 10 32 0 13 -8 63 -12 144 -12 103 0 126 3 137 17 18 21
24 364 7 406 -14 35 -33 39 -173 35 -89 -2 -118 -6 -126 -18 -8 -13 -11 -13
-20 3 -7 11 -22 17 -49 17 -34 0 -42 -4 -55 -30 -8 -16 -15 -43 -15 -60 0 -29
-1 -30 -49 -30 l-48 0 -6 52 c-4 28 -12 55 -19 60 -18 11 -389 10 -407 -1z
m46 -27 c-3 -3 -12 -4 -19 -1 -8 3 -5 6 6 6 11 1 17 -2 13 -5z m60 0 c-3 -3
-12 -4 -19 -1 -8 3 -5 6 6 6 11 1 17 -2 13 -5z m136 -1 c-7 -2 -21 -2 -30 0
-10 3 -4 5 12 5 17 0 24 -2 18 -5z m54 1 c-3 -3 -12 -4 -19 -1 -8 3 -5 6 6 6
11 1 17 -2 13 -5z m43 2 c0 -3 -4 -8 -10 -11 -5 -3 -10 -1 -10 4 0 6 5 11 10
11 6 0 10 -2 10 -4z m283 -3 c-7 -2 -21 -2 -30 0 -10 3 -4 5 12 5 17 0 24 -2
18 -5z m125 0 c-10 -2 -26 -2 -35 0 -10 3 -2 5 17 5 19 0 27 -2 18 -5z m-438
-66 l0 -52 -60 3 -60 4 0 -126 0 -126 -25 0 -25 0 0 125 0 125 -60 0 -60 0 0
49 0 48 145 1 145 1 0 -52z m80 -11 l0 -65 90 -3 90 -3 0 68 0 67 30 0 30 0 0
-174 0 -174 -30 -4 -30 -5 0 74 0 73 -90 0 -90 0 0 -70 0 -70 -30 0 -30 0 0
168 c0 93 3 172 7 175 3 4 17 7 30 7 22 0 23 -4 23 -64z m268 39 c-3 -3 -9 2
-12 12 -6 14 -5 15 5 6 7 -7 10 -15 7 -18z m282 -26 l0 -49 -120 0 c-100 0
-120 -2 -120 -15 0 -12 20 -15 120 -15 l120 0 0 -50 0 -50 -120 0 c-73 0 -120
-4 -120 -10 0 -6 47 -10 120 -10 l120 0 0 -50 0 -50 -116 0 c-63 0 -124 4
-134 10 -28 15 -40 65 -40 169 0 96 5 113 45 158 6 7 51 11 128 11 l117 1 0
-50z m-505 -49 c3 -5 1 -10 -4 -10 -6 0 -11 5 -11 10 0 6 2 10 4 10 3 0 8 -4
11 -10z m115 0 c0 -5 -8 -10 -17 -10 -15 0 -16 2 -3 10 19 12 20 12 20 0z
m-430 -24 c0 -11 -19 -15 -25 -6 -3 5 1 10 9 10 9 0 16 -2 16 -4z m120 -11
c-7 -9 -15 -13 -17 -11 -7 7 7 26 19 26 6 0 6 -6 -2 -15z m187 -117 c-3 -8 -6
-5 -6 6 -1 11 2 17 5 13 3 -3 4 -12 1 -19z m48 12 c3 -5 -1 -10 -10 -10 -9 0
-13 5 -10 10 3 6 8 10 10 10 2 0 7 -4 10 -10z m195 -111 c0 -5 -4 -9 -10 -9
-5 0 -10 7 -10 16 0 8 5 12 10 9 6 -3 10 -10 10 -16z m-303 -25 c-3 -3 -12 -4
-19 -1 -8 3 -5 6 6 6 11 1 17 -2 13 -5z m256 -1 c-7 -2 -21 -2 -30 0 -10 3 -4
5 12 5 17 0 24 -2 18 -5z m135 0 c-10 -2 -28 -2 -40 0 -13 2 -5 4 17 4 22 1
32 -1 23 -4z m140 0 c-21 -2 -55 -2 -75 0 -21 2 -4 4 37 4 41 0 58 -2 38 -4z"/>
<path d="M1166 844 c-13 -13 -16 -46 -16 -204 0 -223 4 -240 63 -240 49 0 66
20 67 78 l0 42 55 0 55 0 0 -38 c0 -55 23 -82 70 -82 22 0 40 5 42 12 4 10 10
10 32 0 16 -7 72 -12 145 -12 98 0 121 3 132 17 10 11 14 46 14 120 l0 103 33
0 32 0 0 -98 c0 -117 12 -142 67 -142 54 0 62 19 63 138 l0 102 35 0 35 0 0
-101 c0 -122 7 -139 60 -139 47 0 70 27 70 82 l0 38 55 0 55 0 0 -43 c0 -67
55 -99 110 -65 15 10 22 10 32 0 8 -8 47 -12 114 -12 93 0 105 2 131 24 37 31
53 93 53 207 0 105 -12 155 -47 195 -24 29 -26 29 -138 29 -104 0 -115 -2
-132 -22 l-19 -21 -17 21 c-18 22 -19 22 -451 22 -386 0 -434 -2 -449 -16 -9
-9 -13 -19 -10 -23 4 -3 1 -6 -5 -6 -6 0 -13 8 -17 19 -8 25 -44 31 -186 31
-94 0 -121 -3 -133 -16z m132 -21 c-15 -2 -42 -2 -60 0 -18 2 -6 4 27 4 33 0
48 -2 33 -4z m105 0 c-13 -2 -33 -2 -45 0 -13 2 -3 4 22 4 25 0 35 -2 23 -4z
m152 -3 c-6 -9 33 -12 188 -12 l47 0 0 -50 0 -50 -115 4 c-104 3 -115 1 -115
-14 0 -16 12 -18 115 -18 l115 0 0 -50 0 -50 -114 0 c-66 0 -117 -4 -121 -10
-4 -6 37 -10 114 -10 l121 0 0 -50 0 -50 -118 0 c-114 0 -119 1 -143 26 -23
24 -24 32 -24 144 0 112 1 120 25 146 19 20 22 28 11 32 -11 4 -11 6 0 13 18
11 22 11 14 -1z m62 4 c-3 -3 -12 -4 -19 -1 -8 3 -5 6 6 6 11 1 17 -2 13 -5z
m131 -1 c-10 -2 -26 -2 -35 0 -10 3 -2 5 17 5 19 0 27 -2 18 -5z m67 -3 c-3
-5 -10 -10 -16 -10 -5 0 -9 5 -9 10 0 6 7 10 16 10 8 0 12 -4 9 -10z m58 3
c-7 -2 -21 -2 -30 0 -10 3 -4 5 12 5 17 0 24 -2 18 -5z m44 1 c-3 -3 -12 -4
-19 -1 -8 3 -5 6 6 6 11 1 17 -2 13 -5z m66 -1 c-7 -2 -21 -2 -30 0 -10 3 -4
5 12 5 17 0 24 -2 18 -5z m64 1 c-3 -3 -12 -4 -19 -1 -8 3 -5 6 6 6 11 1 17
-2 13 -5z m40 0 c-3 -3 -12 -4 -19 -1 -8 3 -5 6 6 6 11 1 17 -2 13 -5z m33 -4
c0 -5 -4 -10 -10 -10 -5 0 -10 -22 -10 -50 l0 -50 -61 0 -61 0 3 -125 4 -125
-27 0 -28 0 0 125 0 125 -60 0 -60 0 0 50 0 51 142 -2 c96 0 144 3 146 10 5
14 22 15 22 1z m237 4 c-3 -3 -12 -4 -19 -1 -8 3 -5 6 6 6 11 1 17 -2 13 -5z
m186 -1 c-7 -2 -19 -2 -25 0 -7 3 -2 5 12 5 14 0 19 -2 13 -5z m74 1 c-3 -3
-12 -4 -19 -1 -8 3 -5 6 6 6 11 1 17 -2 13 -5z m46 -1 c-7 -2 -19 -2 -25 0 -7
3 -2 5 12 5 14 0 19 -2 13 -5z m-253 -13 c0 -5 -2 -10 -4 -10 -3 0 -8 5 -11
10 -3 6 -1 10 4 10 6 0 11 -4 11 -10z m-952 -21 c8 -13 13 -47 11 -87 -1 -37
1 -83 4 -102 4 -19 8 -59 10 -87 4 -52 4 -53 -24 -53 -27 0 -28 3 -35 60 l-7
60 -89 0 -90 0 4 -60 4 -60 -28 0 -28 0 0 174 0 174 128 1 c119 1 128 0 140
-20z m938 -4 c11 -17 15 -45 13 -97 -1 -40 2 -108 6 -150 l8 -78 -32 0 -31 0
0 59 0 60 -90 3 -90 3 0 -61 c0 -58 -2 -62 -25 -66 -14 -3 -25 0 -26 6 -1 14
-1 340 0 343 1 0 57 1 126 1 121 0 126 0 141 -23z m294 6 c33 -31 40 -60 40
-161 0 -105 -13 -151 -45 -164 -21 -8 -179 -8 -200 0 -32 13 -45 59 -45 166 0
103 4 119 45 165 16 19 185 14 205 -6z m-1195 -1 c3 -5 2 -10 -4 -10 -5 0 -13
5 -16 10 -3 6 -2 10 4 10 5 0 13 -4 16 -10z m342 -106 c-3 -3 -12 -4 -19 -1
-8 3 -5 6 6 6 11 1 17 -2 13 -5z m63 -4 c0 -5 -7 -7 -15 -4 -8 4 -15 8 -15 10
0 2 7 4 15 4 8 0 15 -4 15 -10z m167 3 c-10 -9 -57 -10 -57 -1 0 4 14 8 32 8
17 0 28 -3 25 -7z m33 -9 c0 -8 -5 -12 -10 -9 -6 4 -8 11 -5 16 9 14 15 11 15
-7z m356 -216 c4 -7 3 -8 -5 -4 -6 4 -14 0 -17 -8 -3 -9 -11 -16 -17 -16 -5 0
-2 9 8 20 21 23 22 24 31 8z m-950 -13 c-8 -8 -30 -14 -48 -14 l-33 2 30 4
c17 3 34 9 40 14 5 5 13 9 18 9 5 0 2 -7 -7 -15z m71 -11 c-3 -3 -12 -4 -19
-1 -8 3 -5 6 6 6 11 1 17 -2 13 -5z m136 -1 c-13 -2 -35 -2 -50 0 -16 2 -5 4
22 4 28 0 40 -2 28 -4z m70 0 c-7 -2 -19 -2 -25 0 -7 3 -2 5 12 5 14 0 19 -2
13 -5z m180 0 c-7 -2 -19 -2 -25 0 -7 3 -2 5 12 5 14 0 19 -2 13 -5z m210 0
c-7 -2 -19 -2 -25 0 -7 3 -2 5 12 5 14 0 19 -2 13 -5z m455 0 c-27 -2 -69 -2
-95 0 -27 2 -5 3 47 3 52 0 74 -1 48 -3z"/>
<path d="M1240 693 c0 -22 3 -23 90 -23 87 0 90 1 90 23 0 21 -3 22 -90 22
-87 0 -90 -1 -90 -22z"/>
<path d="M2180 692 c0 -22 2 -23 88 -20 78 3 87 5 90 23 3 19 -3 20 -88 20
-87 0 -90 -1 -90 -23z"/>
<path d="M2500 635 l0 -75 85 0 85 0 0 75 0 75 -85 0 -85 0 0 -75z m125 45 c3
-6 -1 -7 -9 -4 -18 7 -21 14 -7 14 6 0 13 -4 16 -10z m15 -51 c0 -5 -25 -9
-55 -9 -67 0 -73 18 -7 22 52 3 62 1 62 -13z"/>
<path d="M3059 839 c-12 -10 -18 -19 -13 -19 5 0 4 -4 -1 -8 -12 -8 -39 -49
-133 -204 -73 -119 -84 -156 -58 -190 10 -13 27 -18 65 -18 50 0 53 2 83 45
37 52 68 60 68 18 1 -52 19 -63 102 -63 88 0 99 8 106 78 l4 47 53 -3 52 -4 0
-37 c0 -59 17 -81 61 -81 21 0 44 6 50 12 10 10 17 10 32 0 29 -17 343 -17
358 1 6 7 12 44 14 82 l3 70 29 -50 c54 -93 119 -141 142 -104 4 8 9 8 17 0 6
-6 33 -11 59 -11 46 0 50 2 80 45 35 49 68 60 68 22 0 -40 27 -67 67 -67 58 0
62 14 63 195 0 88 -4 175 -10 194 -12 42 -45 71 -81 71 -37 0 -48 -12 -132
-148 -31 -51 -57 -97 -57 -102 0 -6 -4 -10 -9 -10 -5 0 -7 42 -4 98 5 79 3
104 -11 130 -14 28 -22 32 -56 32 -49 0 -60 -18 -60 -97 -1 -53 -2 -56 -15
-38 -8 11 -18 25 -22 30 -5 6 -17 24 -27 40 -39 62 -87 82 -118 52 -11 -12
-16 -12 -27 0 -10 12 -40 14 -142 11 -117 -3 -130 -5 -146 -25 l-17 -21 -19
21 c-18 21 -28 22 -207 24 -173 1 -191 -1 -211 -18z m1276 -9 c-3 -5 -12 -10
-18 -10 -7 0 -6 4 3 10 19 12 23 12 15 0z m-1140 -10 c-22 -9 70 -15 179 -12
83 3 98 -16 95 -118 -1 -41 1 -110 5 -152 l8 -78 -31 0 -31 0 0 60 0 60 -90 0
-90 0 0 -60 c0 -60 0 -60 -30 -60 l-29 0 -3 181 c-2 99 -1 183 1 185 2 2 11 4
20 3 12 0 11 -3 -4 -9z m178 3 c-24 -2 -62 -2 -85 0 -24 2 -5 4 42 4 47 0 66
-2 43 -4z m265 0 c-16 -2 -40 -2 -55 0 -16 2 -3 4 27 4 30 0 43 -2 28 -4z
m110 0 c-10 -2 -28 -2 -40 0 -13 2 -5 4 17 4 22 1 32 -1 23 -4z m335 0 c-7 -2
-19 -2 -25 0 -7 3 -2 5 12 5 14 0 19 -2 13 -5z m-273 -14 c0 -5 -4 -8 -9 -4
-6 3 -11 -16 -13 -42 l-3 -48 -115 -2 c-97 -1 -116 -4 -118 -17 -3 -14 12 -16
117 -16 l121 0 0 -50 0 -50 -120 0 c-73 0 -120 -4 -120 -10 0 -6 47 -10 120
-10 l120 0 0 -50 0 -50 -120 0 c-167 0 -175 9 -168 192 3 97 5 106 30 130 24
24 32 27 90 24 51 -3 128 3 181 13 4 0 7 -4 7 -10z m-666 -21 c13 -18 16 -53
16 -175 l0 -153 -25 0 c-23 0 -25 3 -25 48 l0 47 -52 -1 c-51 -2 -52 -3 -75
-48 -21 -41 -27 -46 -56 -46 -18 0 -39 -6 -46 -12 -10 -11 -10 -8 -2 14 13 35
172 292 183 296 4 2 8 9 8 16 0 38 51 47 74 14z m806 -84 c36 -58 69 -114 74
-125 5 -10 12 -19 15 -19 3 0 5 55 3 123 l-4 124 31 0 31 0 0 -141 c0 -114 -3
-148 -18 -176 -30 -60 -45 -52 -122 67 -39 59 -73 118 -76 131 -14 52 -20 14
-16 -103 l4 -125 -31 0 -32 0 3 158 c3 169 10 192 52 192 16 0 37 -26 86 -106z
m428 79 c6 -16 13 -94 14 -175 l3 -146 -27 -5 c-28 -3 -28 -3 -28 51 0 45 -3
53 -16 48 -9 -3 -32 -6 -52 -6 -33 -1 -39 -5 -58 -43 -19 -38 -25 -42 -63 -45
-46 -3 -50 4 -22 39 10 13 26 39 36 58 9 19 21 39 26 45 16 19 59 87 59 92 0
3 16 30 36 60 42 63 74 72 92 27z m-358 -114 c0 -25 -4 -24 -23 5 -15 23 -15
24 3 19 11 -3 20 -14 20 -24z m-109 -79 c5 0 9 -4 9 -8 0 -22 -26 -5 -27 17 0
15 1 18 4 9 2 -10 9 -18 14 -18z m222 -30 c-9 -32 -20 -32 -15 0 2 17 8 28 12
25 5 -3 6 -14 3 -25z m-1051 -39 c-12 -7 -62 -4 -62 5 0 2 17 4 38 4 23 0 32
-3 24 -9z m1178 -1 c0 -5 -5 -10 -11 -10 -5 0 -7 5 -4 10 3 6 8 10 11 10 2 0
4 -4 4 -10z m43 3 c-7 -2 -19 -2 -25 0 -7 3 -2 5 12 5 14 0 19 -2 13 -5z
m-784 -66 c8 -10 7 -14 -4 -14 -8 0 -15 6 -15 14 0 7 2 13 4 13 2 0 9 -6 15
-13z m589 -18 c4 -11 2 -11 -9 -2 -10 10 -16 10 -28 0 -14 -11 -14 -10 -2 6
16 20 32 18 39 -4z m-892 -6 c-7 -7 -87 -6 -94 2 -4 4 5 5 21 3 15 -3 27 -2
27 2 0 4 11 5 25 2 14 -2 24 -6 21 -9z m274 8 c0 -12 -35 -20 -51 -11 -8 6 -3
10 17 13 16 2 30 5 32 6 1 0 2 -3 2 -8z m360 -7 c0 -2 -53 -3 -117 -2 l-118 2
90 5 c85 6 145 3 145 -5z m-902 -1 c-10 -2 -28 -2 -40 0 -13 2 -5 4 17 4 22 1
32 -1 23 -4z m635 0 c-7 -2 -19 -2 -25 0 -7 3 -2 5 12 5 14 0 19 -2 13 -5z
m594 1 c-3 -3 -12 -4 -19 -1 -8 3 -5 6 6 6 11 1 17 -2 13 -5z"/>
<path d="M3240 693 c0 -22 4 -23 84 -23 82 0 96 5 96 38 0 4 -40 7 -90 7 -87
0 -90 -1 -90 -22z"/>
<path d="M3085 673 c-11 -21 -21 -41 -23 -45 -2 -5 8 -8 22 -8 24 0 26 3 26
45 0 25 -1 45 -3 45 -2 0 -12 -17 -22 -37z"/>
<path d="M4324 685 c-3 -13 -12 -29 -20 -36 -21 -17 -17 -29 11 -29 23 0 25 4
25 45 0 50 -6 58 -16 20z"/>
</g>
</svg>
