<?xml version="1.0" encoding="UTF-8" standalone="no"?>
<svg
   xmlns:dc="http://purl.org/dc/elements/1.1/"
   xmlns:cc="http://creativecommons.org/ns#"
   xmlns:rdf="http://www.w3.org/1999/02/22-rdf-syntax-ns#"
   xmlns:svg="http://www.w3.org/2000/svg"
   xmlns="http://www.w3.org/2000/svg"
   xmlns:xlink="http://www.w3.org/1999/xlink"
   height="51.7457"
   width="223.355"
   version="1.1"
   id="svg194">
  <metadata
     id="metadata2">
    <rdf:RDF>
      <cc:Work
         rdf:about="">
        <dc:format>image/svg+xml</dc:format>
        <dc:type
           rdf:resource="http://purl.org/dc/dcmitype/StillImage" />
        <dc:title></dc:title>
      </cc:Work>
    </rdf:RDF>
  </metadata>
  <defs
     id="defs12">
    <linearGradient
       id="a"
       y2="236.005"
       gradientUnits="userSpaceOnUse"
       x2="135.741"
       y1="225.979"
       x1="135.741">
      <stop
         stop-color="#688496"
         offset="0"
         id="stop4" />
      <stop
         stop-color="#EBFFFF"
         offset="1"
         id="stop6" />
    </linearGradient>
    <style
       type="text/css"
       id="style9">.fil0 {fill:black}
    .fil10 {fill:#001426}
    .fil7 {fill:#1E3A4C}
    .fil5 {fill:#456173}
    .fil6 {fill:#688496}
    .fil2 {fill:#8FABBD}
    .fil3 {fill:#B5D1E3}
    .fil4 {fill:#D9F5FF}
    .fil8 {fill:#EBFFFF}
    .fil12 {fill:url(#a)}
    .fil9 {fill:url(#id1)}
    .fil11 {fill:url(#id2)}
    .fil13 {fill:url(#id3)}
    .fil1 {fill:url(#id4)}</style>
    <linearGradient
       id="linearGradient5825"
       y2="236.005"
       xlink:href="#a"
       gradientUnits="userSpaceOnUse"
       x2="135.741"
       y1="225.979"
       x1="135.741" />
  </defs>
  <polygon
     fill-rule="evenodd"
     transform="matrix(3.54331,0,0,3.54331,-335.2248,-792.603)"
     points="103.817,225.978,103.817,225.981,105.054,227.819,105.052,227.821,105.356,227.847,105.644,226.671,105.649,226.624,104.441,224.83"
     class="fil2"
     fill="#8fabbd"
     id="polygon14"
     style="fill:#ffffff" />
  <polygon
     fill-rule="evenodd"
     transform="matrix(3.54331,0,0,3.54331,-335.2248,-792.603)"
     points="104.436,224.822,104.441,224.83,103.812,225.979,98.9494,225.979,96.9001,225.979,95.7369,224.828,95.7369,224.823,95.7532,224.819,104.416,224.819"
     class="fil3"
     fill="#b5d1e3"
     id="polygon16"
     style="fill:#ffffff" />
  <polygon
     fill-rule="evenodd"
     transform="matrix(3.54331,0,0,3.54331,-335.2248,-792.603)"
     points="96.8935,236.005,95.7369,237.161,95.7369,224.826,96.9151,225.979,96.8974,225.979,96.8974,227.973,96.8974,235.985"
     class="fil4"
     fill="#d9f5ff"
     id="polygon18"
     style="fill:#ffffff" />
  <polygon
     fill-rule="evenodd"
     transform="matrix(3.54331,0,0,3.54331,-335.2248,-792.603)"
     points="105.309,228.039,104.624,229.875,102.197,230.783,102.196,230.783,102.201,230.774,105.049,227.824,105.356,227.849"
     class="fil5"
     fill="#456173"
     id="polygon20"
     style="fill:#ffffff" />
  <polygon
     fill-rule="evenodd"
     transform="matrix(3.54331,0,0,3.54331,-335.2248,-792.603)"
     points="103.93,230.778,103.936,230.776,104.623,229.954,104.611,229.91,104.621,229.882,102.201,230.782,102.201,230.783"
     class="fil3"
     fill="#b5d1e3"
     id="polygon22"
     style="fill:#ffffff" />
  <polygon
     fill-rule="evenodd"
     transform="matrix(3.54331,0,0,3.54331,-335.2248,-792.603)"
     points="104.624,229.957,105.197,232.031,105.197,232.032,104.844,232.145,104.844,232.127,103.941,230.781"
     class="fil2"
     fill="#8fabbd"
     id="polygon24"
     style="fill:#ffffff" />
  <polygon
     fill-rule="evenodd"
     transform="matrix(3.54331,0,0,3.54331,-335.2248,-792.603)"
     points="104.844,236.003,104.844,232.145,105.197,232.03,105.197,232.031,105.197,233.539,106.004,235.153,106.004,237.165"
     class="fil6"
     fill="#688496"
     id="polygon26"
     style="fill:#ffffff" />
  <polygon
     fill-rule="evenodd"
     transform="matrix(3.54331,0,0,3.54331,-335.2248,-792.603)"
     points="101.541,237.163,102.703,236.005,102.704,236.005,104.844,236.005,104.844,236.004,104.847,236.005,106.003,237.164,105.999,237.165,101.551,237.165,101.541,237.164"
     class="fil7"
     fill="#1e3a4c"
     id="polygon28"
     style="fill:#ffffff" />
  <polygon
     fill-rule="evenodd"
     transform="matrix(3.54331,0,0,3.54331,-335.2248,-792.603)"
     points="102.702,236.001,102.699,236.01,101.546,237.162,101.541,237.15,101.541,233.79,101.546,233.77,102.699,232.606,102.702,232.615"
     class="fil4"
     fill="#d9f5ff"
     id="polygon30"
     style="fill:#ffffff" />
  <polygon
     fill-rule="evenodd"
     transform="matrix(3.54331,0,0,3.54331,-335.2248,-792.603)"
     points="98.9925,231.609,98.9494,231.56,98.9494,235.985,98.9563,236.012,100.11,237.165,100.11,233.765,100.111,233.765,100.11,233.761"
     class="fil6"
     fill="#688496"
     id="polygon32"
     style="fill:#ffffff" />
  <polygon
     fill-rule="evenodd"
     transform="matrix(3.54331,0,0,3.54331,-335.2248,-792.603)"
     points="98.9494,236.004,100.108,237.165,95.7369,237.165,95.7369,237.164,96.8963,236.002,96.8974,236.002,96.8974,236.005,98.9494,236.005"
     class="fil7"
     fill="#1e3a4c"
     id="polygon34"
     style="fill:#ffffff" />
  <polygon
     fill-rule="evenodd"
     transform="matrix(3.54331,0,0,3.54331,-335.2248,-792.603)"
     points="100.11,233.766,99.8603,232.602,99.8625,232.601,99.8651,232.604,102.693,232.604,101.541,233.765,101.541,233.765,100.11,233.765,100.11,233.766"
     class="fil7"
     fill="#1e3a4c"
     id="polygon36"
     style="fill:#ffffff" />
  <polygon
     fill-rule="evenodd"
     transform="matrix(3.54331,0,0,3.54331,-335.2248,-792.603)"
     points="99.8615,232.604,98.9501,231.557,100.111,233.764"
     class="fil3"
     fill="#b5d1e3"
     id="polygon38"
     style="fill:#ffffff" />
  <polygon
     fill-rule="evenodd"
     transform="matrix(3.54331,0,0,3.54331,-335.2248,-792.603)"
     points="98.9494,230.858,98.953,230.866,98.9543,230.865,100.055,228.963,98.9494,227.973"
     class="fil6"
     fill="#688496"
     id="polygon40"
     style="fill:#ffffff" />
  <polygon
     fill-rule="evenodd"
     transform="matrix(3.54331,0,0,3.54331,-335.2248,-792.603)"
     points="100.055,228.963,102.148,227.975,98.953,230.866,98.9543,230.865"
     class="fil8"
     fill="#ebffff"
     id="polygon42"
     style="fill:#ffffff" />
  <polygon
     fill-rule="evenodd"
     transform="matrix(3.54331,0,0,3.54331,-335.2248,-792.603)"
     points="102.148,227.975,98.953,227.972,100.055,228.963"
     class="fil7"
     fill="#1e3a4c"
     id="polygon44"
     style="fill:#ffffff" />
  <path
     d="m43.307,11.4343-1.51193-3.60071-2.68725,2.68689-0.0035,0.04217-1.15264,4.70693,1.06618,0.445748,0.0071-0.0025v-0.01063l4.2675-4.2676h0.01417z"
     fill-rule="evenodd"
     class="fil8"
     fill="#ebffff"
     id="path46"
     style="fill:#ffffff" />
  <path
     d="M43.2751,11.4272,41.8305,7.83534,41.8518,7.83179h20.1225l0.01772,0.017716-1.51866,3.57733-0.04429,0.01063h-17.1287l-0.0248-0.01063z"
     fill-rule="evenodd"
     class="fil3"
     fill="#b5d1e3"
     id="path48"
     style="fill:#ffffff" />
  <polygon
     fill-rule="evenodd"
     transform="matrix(3.54331,0,0,3.54331,-335.2248,-792.603)"
     points="112.799,228.04,111.677,226.918,112.105,225.907,113.149,226.951,113.392,227.793,112.799,228.045,112.799,228.045"
     class="fil2"
     fill="#8fabbd"
     id="polygon50"
     style="fill:#ffffff" />
  <polygon
     fill-rule="evenodd"
     transform="matrix(3.54331,0,0,3.54331,-335.2248,-792.603)"
     points="113.403,233.58,113.403,233.579,113.403,227.832,113.392,227.793,112.803,228.037,112.799,228.046,112.799,233.318,112.803,233.332"
     class="fil6"
     fill="#688496"
     id="polygon52"
     style="fill:#ffffff" />
  <path
     d="m64.4499,34.1823,0.03189-0.01417,2.11252,0.874843-0.91878,2.92926,0.01772,0.04216-4.21831,4.21831-1.52114-3.5837h0.0071l4.46138-4.46138,0.0248-0.0071z"
     fill-rule="evenodd"
     class="fil10"
     fill="#001426"
     id="path54"
     style="fill:#ffffff" />
  <path
     d="m41.8259,42.2398,1.46764-3.59398,0.0035,0.0035h16.6607l1.50024,3.5341-0.0035,0.05634-0.0248,0.01417h-19.5042l-0.09921-0.01417z"
     fill-rule="evenodd"
     class="fil7"
     fill="#1e3a4c"
     id="path56"
     style="fill:#ffffff" />
  <polygon
     fill-rule="evenodd"
     transform="matrix(3.54331,0,0,3.54331,-335.2248,-792.603)"
     points="105.621,233.383,105.622,233.384,105.622,233.393,106.826,234.597,106.412,235.611,106.424,235.613,106.421,235.615,106.415,235.615,106.4,235.609,105.993,235.202,106.007,235.158,105.206,233.557"
     class="fil3"
     fill="#b5d1e3"
     id="polygon58"
     style="fill:#ffffff" />
  <polygon
     fill-rule="evenodd"
     transform="matrix(3.54331,0,0,3.54331,-335.2248,-792.603)"
     points="105.622,233.384,105.621,233.383,105.206,233.557,105.197,233.539,105.197,232.031,104.611,229.91,105.309,228.039,105.319,228,105.619,228.125,105.622,228.125"
     class="fil4"
     fill="#d9f5ff"
     id="polygon60"
     style="fill:#ffffff" />
  <polygon
     fill-rule="evenodd"
     transform="matrix(3.54331,0,0,3.54331,-335.2248,-792.603)"
     points="110.656,228.97,109.641,229.988,109.639,229.99,109.639,229.987,108.625,229.987,108.625,229.992,108.622,229.988,107.612,228.969,110.656,228.969"
     class="fil7"
     fill="#1e3a4c"
     id="polygon62"
     style="fill:#ffffff" />
  <polygon
     fill-rule="evenodd"
     transform="matrix(3.54331,0,0,3.54331,-335.2248,-792.603)"
     points="110.656,232.543,109.641,231.525,109.639,231.523,109.639,231.526,108.625,231.526,108.625,231.521,108.622,231.525,107.612,232.543,110.656,232.543"
     class="fil3"
     fill="#b5d1e3"
     id="polygon64"
     style="fill:#ffffff" />
  <polygon
     fill-rule="evenodd"
     transform="matrix(3.54331,0,0,3.54331,-335.2248,-792.603)"
     points="110.656,232.543,110.656,228.97,109.641,229.988,109.639,229.991,109.639,231.522,109.641,231.526"
     class="fil4"
     fill="#d9f5ff"
     id="polygon66"
     style="fill:#ffffff" />
  <polygon
     fill-rule="evenodd"
     transform="matrix(3.54331,0,0,3.54331,-335.2248,-792.603)"
     points="107.608,232.543,107.608,228.969,108.623,229.987,108.625,229.99,108.625,231.521,108.623,231.525"
     class="fil6"
     fill="#688496"
     id="polygon68"
     style="fill:#ffffff" />
  <path
     d="m103.178,11.4343-1.51193-3.60071-6.32092,6.32091v0.0032l0.06803,0.104882,3.47457,1.45276,0.0071-0.0025v-0.01063l4.26757-4.26756h0.0142z"
     fill-rule="evenodd"
     class="fil8"
     fill="#ebffff"
     id="path70"
     style="fill:#ffffff" />
  <path
     d="m103.143,11.4272-1.4446-3.59185,0.0213-0.00354h20.1224l0.0177,0.017716-1.51866,3.57733-0.0443,0.01063h-17.1287l-0.0248-0.01063z"
     fill-rule="evenodd"
     class="fil3"
     fill="#b5d1e3"
     id="path72"
     style="fill:#ffffff" />
  <polygon
     fill-rule="evenodd"
     transform="matrix(3.54331,0,0,3.54331,-335.2248,-792.603)"
     points="129.002,225.907,130.709,227.614,129.696,228.045,129.696,228.045,129.696,228.04,128.574,226.918"
     class="fil2"
     fill="#8fabbd"
     id="polygon74"
     style="fill:#ffffff" />
  <polygon
     fill-rule="evenodd"
     transform="matrix(3.54331,0,0,3.54331,-335.2248,-792.603)"
     points="129.696,233.318,129.7,233.332,130.713,233.751,130.713,233.751,130.713,233.75,130.713,227.619,130.713,227.618,130.712,227.617,129.7,228.037,129.696,228.046"
     class="fil6"
     fill="#688496"
     id="polygon76"
     style="fill:#ffffff" />
  <path
     d="m124.321,34.1823,0.0319-0.01417,3.55925,1.47402,0.0106,0.01417-6.57674,6.57674-1.52114-3.5837h0.007l4.46138-4.46138,0.0248-0.0071z"
     fill-rule="evenodd"
     class="fil10"
     fill="#001426"
     id="path78"
     style="fill:#ffffff" />
  <path
     d="m101.694,42.2398,1.46764-3.59398,0.004,0.0035h16.6606l1.50023,3.5341-0.004,0.05634-0.0248,0.01417h-19.5042l-0.0992-0.01417z"
     fill-rule="evenodd"
     class="fil7"
     fill="#1e3a4c"
     id="path80"
     style="fill:#ffffff" />
  <polygon
     fill-rule="evenodd"
     transform="matrix(3.54331,0,0,3.54331,-335.2248,-792.603)"
     points="122.517,233.383,122.519,233.384,122.519,233.393,123.723,234.597,123.308,235.611,123.321,235.613,123.318,235.615,123.312,235.615,123.296,235.609,121.86,234.172,121.862,234.167,121.862,233.658"
     class="fil3"
     fill="#b5d1e3"
     id="polygon82"
     style="fill:#ffffff" />
  <polygon
     fill-rule="evenodd"
     transform="matrix(3.54331,0,0,3.54331,-335.2248,-792.603)"
     points="122.519,233.384,122.517,233.383,121.862,233.658,121.862,230.309,121.502,229.285,121.502,228.696,121.862,228.219,121.536,227.716,122.516,228.125,122.519,228.125"
     class="fil4"
     fill="#d9f5ff"
     id="polygon84"
     style="fill:#ffffff" />
  <polygon
     fill-rule="evenodd"
     transform="matrix(3.54331,0,0,3.54331,-335.2248,-792.603)"
     points="127.553,228.97,126.537,229.988,126.536,229.99,126.536,229.987,125.522,229.987,125.522,229.992,125.519,229.988,124.509,228.969,127.553,228.969"
     class="fil7"
     fill="#1e3a4c"
     id="polygon86"
     style="fill:#ffffff" />
  <polygon
     fill-rule="evenodd"
     transform="matrix(3.54331,0,0,3.54331,-335.2248,-792.603)"
     points="127.553,232.543,126.537,231.525,126.536,231.523,126.536,231.526,125.522,231.526,125.522,231.521,125.519,231.525,124.509,232.543,127.553,232.543"
     class="fil3"
     fill="#b5d1e3"
     id="polygon88"
     style="fill:#ffffff" />
  <polygon
     fill-rule="evenodd"
     transform="matrix(3.54331,0,0,3.54331,-335.2248,-792.603)"
     points="127.553,232.543,127.553,228.97,126.537,229.988,126.536,229.991,126.536,231.522,126.537,231.526"
     class="fil4"
     fill="#d9f5ff"
     id="polygon90"
     style="fill:#ffffff" />
  <polygon
     fill-rule="evenodd"
     transform="matrix(3.54331,0,0,3.54331,-335.2248,-792.603)"
     points="124.504,232.543,124.504,228.969,125.52,229.987,125.522,229.99,125.522,231.521,125.52,231.525"
     class="fil6"
     fill="#688496"
     id="polygon92"
     style="fill:#ffffff" />
  <polygon
     fill-rule="evenodd"
     transform="matrix(3.54331,0,0,3.54331,-335.2248,-792.603)"
     points="120.076,225.909,119.593,226.917,119.583,226.919,119.582,226.917,114.171,226.917,113.156,225.9,113.159,225.9,120.068,225.9"
     class="fil3"
     fill="#b5d1e3"
     id="polygon94"
     style="fill:#ffffff" />
  <polygon
     fill-rule="evenodd"
     transform="matrix(3.54331,0,0,3.54331,-335.2248,-792.603)"
     points="119.597,226.919,119.594,226.915,120.076,225.909,120.074,225.907,121.549,227.736,121.861,228.219,120.592,228.169,119.6,226.939"
     class="fil2"
     fill="#8fabbd"
     id="polygon96"
     style="fill:#ffffff" />
  <polygon
     fill-rule="evenodd"
     transform="matrix(3.54331,0,0,3.54331,-335.2248,-792.603)"
     points="119.104,229.762,120.594,228.173,120.592,228.169,121.861,228.219,121.862,228.219,121.52,228.672,121.251,228.959,121.253,228.961,121.252,228.961"
     class="fil5"
     fill="#456173"
     id="polygon98"
     style="fill:#ffffff" />
  <polygon
     fill-rule="evenodd"
     transform="matrix(3.54331,0,0,3.54331,-335.2248,-792.603)"
     points="121.246,228.964,119.104,229.762,119.1,229.766,120.593,229.766"
     class="fil3"
     fill="#b5d1e3"
     id="polygon100"
     style="fill:#ffffff" />
  <polygon
     fill-rule="evenodd"
     transform="matrix(3.54331,0,0,3.54331,-335.2248,-792.603)"
     points="121.502,229.285,121.86,230.305,121.208,230.533,121.208,230.529,120.594,229.766,120.593,229.766,121.246,228.964,121.235,228.968,121.242,228.963,121.255,228.964,121.502,229.272"
     class="fil2"
     fill="#8fabbd"
     id="polygon102"
     style="fill:#ffffff" />
  <polygon
     fill-rule="evenodd"
     transform="matrix(3.54331,0,0,3.54331,-335.2248,-792.603)"
     points="121.862,233.618,121.862,230.309,121.86,230.305,121.208,230.533,121.208,233.349,121.212,233.353"
     class="fil6"
     fill="#688496"
     id="polygon104"
     style="fill:#ffffff" />
  <polygon
     fill-rule="evenodd"
     transform="matrix(3.54331,0,0,3.54331,-335.2248,-792.603)"
     points="113.154,235.603,113.154,234.374,113.403,233.579,113.403,227.832,113.154,226.968,113.154,225.9,113.159,225.9,113.156,225.9,114.171,226.917,114.171,226.917,114.171,234.569,114.165,234.59"
     class="fil4"
     fill="#d9f5ff"
     id="polygon106"
     style="fill:#ffffff" />
  <polygon
     fill-rule="evenodd"
     transform="matrix(3.54331,0,0,3.54331,-335.2248,-792.603)"
     points="119.987,234.591,121.208,233.351,121.208,233.349,121.212,233.353,121.862,233.618,121.862,234.137,120.406,235.615,120.385,235.615,119.986,234.597"
     class="fil10"
     fill="#001426"
     id="polygon108"
     style="fill:#ffffff" />
  <polygon
     fill-rule="evenodd"
     transform="matrix(3.54331,0,0,3.54331,-335.2248,-792.603)"
     points="114.171,234.569,114.171,234.598,119.98,234.598,119.987,234.591,119.986,234.597,120.385,235.615,113.154,235.615,113.154,235.603,114.165,234.59"
     class="fil7"
     fill="#1e3a4c"
     id="polygon110"
     style="fill:#ffffff" />
  <polygon
     fill-rule="evenodd"
     transform="matrix(3.54331,0,0,3.54331,-335.2248,-792.603)"
     points="116.84,231.542,116.923,232.074,118.501,232.074,119.003,231.542,119.003,231.542,116.843,231.542,116.843,231.541"
     class="fil7"
     fill="#1e3a4c"
     id="polygon112"
     style="fill:#ffffff" />
  <polygon
     fill-rule="evenodd"
     transform="matrix(3.54331,0,0,3.54331,-335.2248,-792.603)"
     points="119.004,231.541,118.506,232.075,119.004,232.606"
     class="fil4"
     fill="#d9f5ff"
     id="polygon114"
     style="fill:#ffffff" />
  <polygon
     fill-rule="evenodd"
     transform="matrix(3.54331,0,0,3.54331,-335.2248,-792.603)"
     points="116.311,230.958,116.311,230.959,116.918,232.07,116.84,231.542,116.311,230.958"
     class="fil3"
     fill="#b5d1e3"
     id="polygon116"
     style="fill:#ffffff" />
  <path
     d="m76.9011,31.5851,2.15469-1.87689-0.0025-0.01772-2.15221-3.93803v5.83158zm0.000709-5.83477-0.000709-0.000709v0.000709h0.000709z"
     fill-rule="evenodd"
     class="fil6"
     fill="#688496"
     id="path118"
     style="fill:#ffffff" />
  <polygon
     fill-rule="evenodd"
     transform="matrix(3.54331,0,0,3.54331,-335.2248,-792.603)"
     points="116.919,232.075,116.923,232.074,118.501,232.074,118.506,232.075,119.002,232.604,116.312,232.604,116.312,232.603"
     class="fil3"
     fill="#b5d1e3"
     id="polygon120"
     style="fill:#ffffff" />
  <polygon
     fill-rule="evenodd"
     transform="matrix(3.54331,0,0,3.54331,-335.2248,-792.603)"
     points="116.31,230.274,116.312,230.278,116.313,230.277,116.811,229.415,116.31,228.967"
     class="fil6"
     fill="#688496"
     id="polygon122"
     style="fill:#ffffff" />
  <polygon
     fill-rule="evenodd"
     transform="matrix(3.54331,0,0,3.54331,-335.2248,-792.603)"
     points="116.811,229.415,117.757,228.969,116.312,230.278,116.313,230.277"
     class="fil8"
     fill="#ebffff"
     id="polygon124"
     style="fill:#ffffff" />
  <polygon
     fill-rule="evenodd"
     transform="matrix(3.54331,0,0,3.54331,-335.2248,-792.603)"
     points="117.757,228.969,116.312,228.967,116.811,229.415"
     class="fil7"
     fill="#1e3a4c"
     id="polygon126"
     style="fill:#ffffff" />
  <polygon
     fill-rule="evenodd"
     transform="matrix(3.54331,0,0,3.54331,-335.2248,-792.603)"
     points="132.818,225.979,139.85,225.979,139.866,225.975,142.324,224.824,142.326,224.821,142.318,224.819,132.388,224.819,132.371,224.833,132.793,225.975"
     class="fil3"
     fill="#b5d1e3"
     id="polygon128"
     style="fill:#ffffff" />
  <polygon
     fill-rule="evenodd"
     transform="matrix(3.54331,0,0,3.54331,-335.2248,-792.603)"
     points="132.818,225.979,132.793,225.975,132.371,224.833,132.388,224.819,130.451,226.351,131.608,226.913,131.612,226.913,132.792,225.979"
     class="fil8"
     fill="#ebffff"
     id="polygon130"
     style="fill:#ffffff" />
  <polygon
     fill-rule="evenodd"
     transform="matrix(3.54331,0,0,3.54331,-335.2248,-792.603)"
     points="140.749,235.461,140.747,235.458,139.828,233.772,139.589,234.013,139.589,235.994,140.749,237.165"
     class="fil6"
     fill="#688496"
     id="polygon132"
     style="fill:#ffffff" />
  <polygon
     fill-rule="evenodd"
     transform="matrix(3.54331,0,0,3.54331,-335.2248,-792.603)"
     points="133.927,234.003,139.589,234.003,139.589,234.013,139.828,233.772,139.827,233.771,139.631,233.588,139.105,232.843,139.106,232.842,135.074,232.842,135.066,232.845"
     class="fil3"
     fill="#b5d1e3"
     id="polygon134"
     style="fill:#ffffff" />
  <polygon
     fill-rule="evenodd"
     transform="matrix(3.54331,0,0,3.54331,-335.2248,-792.603)"
     points="133.927,234.003,135.066,232.845,135.074,232.842,135.071,232.842,135.071,229.142,135.066,229.128,133.929,227.973,133.91,227.973,133.91,234.003"
     class="fil6"
     fill="#688496"
     id="polygon136"
     style="fill:#ffffff" />
  <polygon
     fill-rule="evenodd"
     transform="matrix(3.54331,0,0,3.54331,-335.2248,-792.603)"
     points="138.241,227.973,133.929,227.973,135.066,229.128,135.071,229.142,135.071,229.133,138.779,229.133,138.782,229.128,138.242,227.971"
     class="fil7"
     fill="#1e3a4c"
     id="polygon138"
     style="fill:#ffffff" />
  <path
     d="m169.087,4.00041h-0.0354l0.0248,0.01063-0.007,0.00709,0.0142-0.017716zm-12.574,15.2873h0.0386l1.06477-1.29862-0.0142-0.01063,1.11968-3.28819,5.59772-6.11256,1.5626-0.670748,3.18934-3.88914-8.70946,4.07764-0.0542,0.014173h0.0889l-5.78728,7.05756,1.91374,4.10103-0.0106,0.01772z"
     fill-rule="evenodd"
     class="fil10"
     fill="#001426"
     id="path140"
     style="fill:#ffffff" />
  <polygon
     fill-rule="evenodd"
     transform="matrix(3.54331,0,0,3.54331,-335.2248,-792.603)"
     points="140.749,237.165,139.589,235.994,139.589,236.005,133.156,236.005,132.692,237.165,132.693,237.165"
     class="fil7"
     fill="#1e3a4c"
     id="polygon142"
     style="fill:#ffffff" />
  <polygon
     fill-rule="evenodd"
     transform="matrix(3.54331,0,0,3.54331,-335.2248,-792.603)"
     points="133.156,236.005,133.136,236.005,131.606,234.598,131.606,234.594,131.598,234.596,130.474,235.134,132.683,237.165,132.693,237.165,132.692,237.165"
     class="fil3"
     fill="#b5d1e3"
     id="polygon144"
     style="fill:#ffffff" />
  <polygon
     fill-rule="evenodd"
     transform="matrix(3.54331,0,0,3.54331,-335.2248,-792.603)"
     points="131.598,234.596,131.606,234.594,131.606,226.917,131.612,226.913,131.608,226.913,130.451,226.351,130.445,226.356,130.445,235.107,130.474,235.134"
     class="fil4"
     fill="#d9f5ff"
     id="polygon146"
     style="fill:#ffffff" />
  <polygon
     fill-rule="evenodd"
     transform="matrix(3.54331,0,0,3.54331,-335.2248,-792.603)"
     points="155.131,228.7,153.692,226.917,153.699,226.926,153.712,226.921,154.195,225.92,154.179,225.9,156.498,228.774,156.51,228.81,155.124,228.706"
     class="fil3"
     fill="#b5d1e3"
     id="polygon148"
     style="fill:#ffffff" />
  <polygon
     fill-rule="evenodd"
     transform="matrix(3.54331,0,0,3.54331,-335.2248,-792.603)"
     points="151.448,232.009,151.448,233.388,150.463,231.022"
     class="fil3"
     fill="#b5d1e3"
     id="polygon150"
     style="fill:#ffffff" />
  <polygon
     fill-rule="evenodd"
     transform="matrix(3.54331,0,0,3.54331,-335.2248,-792.603)"
     points="150.467,234.594,150.458,231.024,151.45,233.378,151.416,235.613"
     class="fil6"
     fill="#688496"
     id="polygon152"
     style="fill:#ffffff" />
  <polygon
     fill-rule="evenodd"
     transform="matrix(3.54331,0,0,3.54331,-335.2248,-792.603)"
     points="151.449,232.006,155.121,228.701,156.515,228.814,151.449,233.369"
     class="fil10"
     fill="#001426"
     id="polygon154"
     style="fill:#ffffff" />
  <polygon
     fill-rule="evenodd"
     transform="matrix(3.54331,0,0,3.54331,-335.2248,-792.603)"
     points="153.699,226.926,153.692,226.917,148.359,226.917,148.359,226.919,147.347,225.907,147.378,225.9,154.179,225.9,154.195,225.92,153.712,226.921"
     class="fil3"
     fill="#b5d1e3"
     id="polygon156"
     style="fill:#ffffff" />
  <polygon
     fill-rule="evenodd"
     transform="matrix(3.54331,0,0,3.54331,-335.2248,-792.603)"
     points="148.359,234.536,148.359,234.598,150.465,234.598,150.465,234.596,151.415,235.615,147.341,235.615"
     class="fil7"
     fill="#1e3a4c"
     id="polygon158"
     style="fill:#ffffff" />
  <polygon
     fill-rule="evenodd"
     transform="matrix(3.54331,0,0,3.54331,-335.2248,-792.603)"
     points="147.341,234.729,147.347,234.713,147.827,233.56,147.827,227.819,147.347,226.638,147.341,226.64,147.341,225.9,147.378,225.9,147.347,225.907,148.359,226.919,148.359,234.536,147.341,235.615"
     class="fil4"
     fill="#d9f5ff"
     id="polygon160"
     style="fill:#ffffff" />
  <polygon
     fill-rule="evenodd"
     transform="matrix(3.54331,0,0,3.54331,-335.2248,-792.603)"
     points="150.456,230.608,150.459,230.613,150.459,230.612,151.083,229.532,150.456,228.972"
     class="fil6"
     fill="#688496"
     id="polygon162"
     style="fill:#ffffff" />
  <polygon
     fill-rule="evenodd"
     transform="matrix(3.54331,0,0,3.54331,-335.2248,-792.603)"
     points="151.083,229.532,152.269,228.974,150.459,230.613,150.459,230.612"
     class="fil8"
     fill="#ebffff"
     id="polygon164"
     style="fill:#ffffff" />
  <polygon
     fill-rule="evenodd"
     transform="matrix(3.54331,0,0,3.54331,-335.2248,-792.603)"
     points="152.269,228.974,150.459,228.971,151.083,229.532"
     class="fil7"
     fill="#1e3a4c"
     id="polygon166"
     style="fill:#ffffff" />
  <path
     d="m165.548,11.4343-1.20366-2.86725-0.0248,0.01063-5.57504,6.08776,2.51256,1.05059,0.007-0.0025v-0.01063l4.26756-4.26756h0.0142z"
     fill-rule="evenodd"
     class="fil8"
     fill="#ebffff"
     id="path168"
     style="fill:#ffffff" />
  <path
     d="m165.512,11.4272-1.15229-2.86512,1.58032-0.678898,0.14315-0.051378h18.1283l0.0177,0.017716-1.51831,3.57733-0.0443,0.01063h-17.1291l-0.0248-0.01063z"
     fill-rule="evenodd"
     class="fil3"
     fill="#b5d1e3"
     id="path170"
     style="fill:#ffffff" />
  <polygon
     fill-rule="evenodd"
     transform="matrix(3.54331,0,0,3.54331,-335.2248,-792.603)"
     points="147.298,228.045,147.298,228.045,147.298,228.04,146.176,226.918,146.604,225.907,147.355,226.658,147.827,227.819,147.827,227.82"
     class="fil3"
     fill="#b5d1e3"
     id="polygon172"
     style="fill:#ffffff" />
  <polygon
     fill-rule="evenodd"
     transform="matrix(3.54331,0,0,3.54331,-335.2248,-792.603)"
     points="147.302,228.037,147.298,228.046,147.298,233.318,147.302,233.332,147.827,233.549,147.827,227.819"
     class="fil6"
     fill="#688496"
     id="polygon174"
     style="fill:#ffffff" />
  <path
     d="m186.691,34.1823,0.0354-0.01417,1.84642,0.764647v0.03756l-1.69937,4.08756,0.0106,0.01063-3.16559,3.16559-1.52115-3.5837h0.007l4.46103-4.46138,0.0248-0.0071z"
     fill-rule="evenodd"
     class="fil10"
     fill="#001426"
     id="path176"
     style="fill:#ffffff" />
  <path
     d="m164.067,42.2398,1.46763-3.59398,0.004,0.0035h16.6606l1.50024,3.5341-0.004,0.05634-0.0248,0.01417h-19.5042l-0.0992-0.01417z"
     fill-rule="evenodd"
     class="fil7"
     fill="#1e3a4c"
     id="path178"
     style="fill:#ffffff" />
  <polygon
     fill-rule="evenodd"
     transform="matrix(3.54331,0,0,3.54331,-335.2248,-792.603)"
     points="140.12,233.383,140.121,233.384,140.121,233.393,141.325,234.597,140.911,235.611,140.923,235.613,140.92,235.615,140.914,235.615,140.898,235.609,140.746,235.457,139.827,233.771,139.631,233.588"
     class="fil3"
     fill="#b5d1e3"
     id="polygon180"
     style="fill:#ffffff" />
  <polygon
     fill-rule="evenodd"
     transform="matrix(3.54331,0,0,3.54331,-335.2248,-792.603)"
     points="139.409,227.829,140.118,228.125,140.121,228.125,140.121,233.384,140.12,233.383,139.631,233.588,139.105,232.843,139.103,232.842,139.103,228.716,139.403,227.836"
     class="fil4"
     fill="#d9f5ff"
     id="polygon182"
     style="fill:#ffffff" />
  <polygon
     fill-rule="evenodd"
     transform="matrix(3.54331,0,0,3.54331,-335.2248,-792.603)"
     points="145.155,228.97,144.139,229.988,144.138,229.99,144.138,229.987,143.124,229.987,143.124,229.992,143.121,229.988,142.111,228.969,145.155,228.969"
     class="fil7"
     fill="#1e3a4c"
     id="polygon184"
     style="fill:#ffffff" />
  <polygon
     fill-rule="evenodd"
     transform="matrix(3.54331,0,0,3.54331,-335.2248,-792.603)"
     points="145.155,232.543,144.139,231.525,144.138,231.523,144.138,231.526,143.124,231.526,143.124,231.521,143.121,231.525,142.111,232.543,145.155,232.543"
     class="fil3"
     fill="#b5d1e3"
     id="polygon186"
     style="fill:#ffffff" />
  <polygon
     fill-rule="evenodd"
     transform="matrix(3.54331,0,0,3.54331,-335.2248,-792.603)"
     points="145.155,232.543,145.155,228.97,144.139,229.988,144.138,229.991,144.138,231.522,144.139,231.526"
     class="fil4"
     fill="#d9f5ff"
     id="polygon188"
     style="fill:#ffffff" />
  <polygon
     fill-rule="evenodd"
     transform="matrix(3.54331,0,0,3.54331,-335.2248,-792.603)"
     points="142.106,232.543,142.106,228.969,143.122,229.987,143.124,229.99,143.124,231.521,143.122,231.525"
     class="fil6"
     fill="#688496"
     id="polygon190"
     style="fill:#ffffff" />
  <path
     d="m 131.09606,92.85407 5.42126,0.818651 h 22.86498 v -1.164847 h -20.12246 v -3.508508 h 15.34608 l 5.78977,-1.160193 h -25.09727 l -4.20236,0.545768 z M 15.383599,88.999366 v 1.685306 l 11.33434,-1.685306 z m 7.408387,9.096431 21.635026,0.945278 -7.412569,-10.131254 -10.139181,1.724521 6.189099,-0.0029 3.205278,0.784963 -4.60524,12.087105 -2.985238,-9.830896 V 91.694051 H 18.628207 l -3.244608,-0.607792 v 2.586346 H 8.1127264 l 6.3322276,5.699084 z m 54.112687,-6.40192 v -0.95649 l 1.881852,0.338283 h 7.657093 v 0.618207 z m 0,-2.114996 h 4.790555 l -4.790555,0.762853 z M 69.3188,88.384941 h 19.171079 l 3.587247,0.730445 -5.292642,0.92699 h 5.292642 l 2.175592,0.444237 v 1.641609 l -4.351539,0.725499 H 69.3188 Z m 47.41622,3.275189 v -2.0809 h -10.80249 v 2.0809 z m 7.59261,-2.621722 v 3.077653 l -4.49398,0.738009 h -16.66738 l -4.270044,-0.701178 v -3.066831 l 4.267564,-0.700771 h 17.18647 z M 56.863711,91.66013 v -2.0809 H 46.061222 v 2.0809 z m 7.592605,-2.621722 v 3.077653 l -4.49398,0.738009 H 43.29496 L 39.024917,92.152892 V 89.086061 L 43.29248,88.38529 H 60.478951 Z M 179.10436,91.66013 v -2.0809 h -10.80249 v 2.0809 z m 7.59261,-2.621722 v 3.077653 l -4.49398,0.738009 h -16.66738 l -4.27004,-0.701178 v -3.066831 l 4.26756,-0.700771 h 17.18647 z m 11.2082,1.448147 v -0.907732 h 6.39425 z m 0.0142,2.367107 h -7.46398 v -4.468953 l 18.89824,1.8e-4 5.09634,1.037133 -13.05674,1.931832 -3.49299,-0.574802 0.0177,2.074616 z"
     id="path192"
     style="fill:#800000;fill-rule:evenodd;stroke-width:1.43584347" />
</svg>
