<?xml version="1.0" encoding="UTF-8" standalone="no"?>
<svg
   xmlns:dc="http://purl.org/dc/elements/1.1/"
   xmlns:cc="http://creativecommons.org/ns#"
   xmlns:rdf="http://www.w3.org/1999/02/22-rdf-syntax-ns#"
   xmlns:svg="http://www.w3.org/2000/svg"
   xmlns="http://www.w3.org/2000/svg"
   version="1.1"
   width="449.89"
   viewBox="0 0 449.88751 184.08183"
   height="184.08"
   xml:space="preserve"
   id="svg4320"><metadata
     id="metadata4326"><rdf:RDF><cc:Work
         rdf:about=""><dc:format>image/svg+xml</dc:format><dc:type
           rdf:resource="http://purl.org/dc/dcmitype/StillImage" /><dc:title></dc:title></cc:Work></rdf:RDF></metadata><defs
     id="defs4324"><clipPath
       clipPathUnits="userSpaceOnUse"
       id="clipPath4336"><path
         d="m0 792h612v-792h-612v792z"
         id="path4338" /></clipPath><clipPath
       clipPathUnits="userSpaceOnUse"
       id="clipPath4354"><path
         d="m108.04 370.28h359.91v147.38h-359.91v-147.38z"
         id="path4356" /></clipPath><clipPath
       clipPathUnits="userSpaceOnUse"
       id="clipPath4426"><path
         d="m108.04 370.28h359.91v147.38h-359.91v-147.38z"
         id="path4428" /></clipPath></defs><g
     style="fill:#ffffff"
     transform="matrix(1.25 0 0 -1.25 -135.06 646.94)"
     id="g4328"><g
       style="fill:#ffffff"
       id="g4330"><g
         style="fill:#ffffff"
         id="g4332" /></g><path
       style="fill:#ffffff"
       d="m136.85 467.46h-24.68v15.22h24.68v-15.22zm1.903 19.004h-28.326l-2.378-2.304v-18.391l2.47-1.996h28.273l2.486 2.207v18.182l-2.525 2.302z"
       id="path4348" /><g
       style="fill:#ffffff"
       id="g4350"><g
         style="fill:#ffffff"
         clip-path="url(#clipPath4354)"
         id="g4352"><g
           style="fill:#ffffff"
           transform="translate(333.34 426.35)"
           id="g4358"><path
             style="fill:#ffffff"
             d="m0 0c-10.359 0-18.798 7.97-19.151 17.932-0.008 0.217-0.012 0.433-0.012 0.651 0 10.266 8.58 18.587 19.163 18.587 10.584 0 19.163-8.321 19.163-18.587 0-0.214-0.004-0.428-0.011-0.641-0.349-9.967-8.79-17.942-19.152-17.942m0 41.113c-12.815 0-23.201-10.088-23.201-22.53 0-12.441 10.386-22.528 23.201-22.528 12.814 0 23.201 10.087 23.201 22.528 0 12.442-10.387 22.53-23.201 22.53"
             id="path4360" /></g><g
           style="fill:#ffffff"
           transform="translate(333.34 406.64)"
           id="g4362"><path
             style="fill:#ffffff"
             d="m0 0c-21.804 0-39.48 17.141-39.48 38.286s17.676 38.287 39.48 38.287c21.805 0 39.48-17.142 39.48-38.287s-17.675-38.286-39.48-38.286m0 80.515c-24.019 0-43.49-18.906-43.49-42.229 0-0.208 0.002-0.414 0.005-0.621 0.343-23.036 19.68-41.608 43.485-41.608s43.142 18.572 43.484 41.608c0.003 0.207 0.005 0.413 0.005 0.621 0 23.323-19.471 42.229-43.489 42.229"
             id="path4364" /></g><g
           style="fill:#ffffff"
           transform="translate(463.74 406.97)"
           id="g4366"><path
             style="fill:#ffffff"
             d="m0 0h-6.82l-28.458 31.788v9.512h19.659l0.062 34.554h15.566l-0.009-75.854zm1.503 79.579h-18.232l-2.695-3.241v-31.55h-17.123c-2.219 0-2.219-1.143-2.219-2.061v-12.208l30.44-34.403h9.829l2.537 2.378v78.161l-2.537 2.924z"
             id="path4368" /></g><g
           style="fill:#ffffff"
           transform="translate(419.18 441.14)"
           id="g4370"><path
             style="fill:#ffffff"
             d="m0 0h-19.58v-33.928h-15.659l0.04 75.545h6.82l28.379-32.104v-9.513zm-26.851 45.249h-9.829l-2.559-2.443v-78.161l2.537-2.695h18.232l2.695 3.012v31.55h17.123c2.219 0 2.219 1.143 2.219 2.061v12.208l-30.418 34.468z"
             id="path4372" /></g><g
           style="fill:#ffffff"
           transform="translate(283.23 407.05)"
           id="g4374"><path
             style="fill:#ffffff"
             d="m0 0h-18.814l-31.767 32.432v13.167l51.874 0.015c-3.264-9.59-11.658-15.548-21.907-15.548h-9.245s26.166-26.348 29.859-30.066m-20.011 26.238c13.775 0.282 24.536 9.754 26.169 23.035h-58.054l-2.642-2.609v-14.797c0-0.48 0-1.026 0.408-1.477 0.059-0.062 31.544-32.482 33.361-34.354h26.318v4.123l-26.194 26.065 0.634 0.014z"
             id="path4376" /></g><g
           style="fill:#ffffff"
           transform="translate(220.19 407.05)"
           id="g4378"><path
             style="fill:#ffffff"
             d="m0 0-15.641-0.069v45.623l15.674-0.018-0.033-45.536zm1.293 49.306h-18.702l-2.44-2.643v-48.075l2.705-2.576h18.567l2.589 3.036v47.616l-2.719 2.642z"
             id="path4380" /></g><g
           style="fill:#ffffff"
           transform="translate(172.5 467.37)"
           id="g4382"><path
             style="fill:#ffffff"
             d="m0 0c-3.668 0-6.767-3.094-6.767-6.756l-0.029-53.562-15.641-0.069-0.008 54.86c0.119 11.868 9.233 20.801 21.254 20.801l91.237-0.008c9.951 0 18.761-6.127 21.924-15.245l-111.97-0.021zm90.084 19.132-91.224 0.005c-14.597-0.026-25.326-10.506-25.511-24.914l0.006-55.953 2.85-2.431h18.568l2.444 2.891-0.003 54.412c0 1.7 1.397 3.032 3.179 3.032l116.43-0.014c-1.9 13.096-13.4 22.972-26.736 22.972"
             id="path4384" /></g><g
           style="fill:#ffffff"
           transform="translate(269.68 505.25)"
           id="g4386" /><g
           style="fill:#ffffff"
           transform="translate(295.02 512.55)"
           id="g4390" /><g
           style="fill:#ffffff"
           transform="translate(291.81 509.35)"
           id="g4394" /><g
           style="fill:#ffffff"
           transform="translate(303 503.18)"
           id="g4398" /><g
           style="fill:#ffffff"
           transform="translate(305.66 508.27)"
           id="g4402" /><g
           style="fill:#ffffff"
           transform="translate(319.98 507.97)"
           id="g4406" /><g
           style="fill:#ffffff"
           transform="translate(327.1 504.83)"
           id="g4410" /></g></g><g
       style="fill:#ffffff"
       transform="translate(145.95 387.17)"
       id="g4414" /><g
       style="fill:#ffffff"
       transform="translate(208.2 387.17)"
       id="g4418" /><g
       style="fill:#ffffff"
       id="g4422"><g
         style="fill:#ffffff"
         clip-path="url(#clipPath4426)"
         id="g4424"><g
           style="fill:#ffffff"
           transform="translate(283.37 370.63)"
           id="g4430" /><g
           style="fill:#ffffff"
           transform="translate(332.62 377.11)"
           id="g4434" /><g
           style="fill:#ffffff"
           transform="translate(403.3 382.16)"
           id="g4438" /><g
           style="fill:#ffffff"
           transform="translate(458.8 377.44)"
           id="g4442" /></g></g></g></svg>