<?xml version="1.0" encoding="UTF-8" standalone="no"?>
<svg
   xmlns:dc="http://purl.org/dc/elements/1.1/"
   xmlns:cc="http://creativecommons.org/ns#"
   xmlns:rdf="http://www.w3.org/1999/02/22-rdf-syntax-ns#"
   xmlns:svg="http://www.w3.org/2000/svg"
   xmlns="http://www.w3.org/2000/svg"
   id="svg15"
   version="1.1"
   width="514.454"
   height="165.714">
  <metadata
     id="metadata19">
    <rdf:RDF>
      <cc:Work
         rdf:about="">
        <dc:format>image/svg+xml</dc:format>
        <dc:type
           rdf:resource="http://purl.org/dc/dcmitype/StillImage" />
        <dc:title></dc:title>
      </cc:Work>
    </rdf:RDF>
  </metadata>
  <defs
     id="defs7">
    <linearGradient
       x1="111.478"
       x2="111.478"
       gradientTransform="translate(-14.3851 -158.75)"
       y1="854.262"
       gradientUnits="userSpaceOnUse"
       y2="921.407"
       id="a">
      <stop
         id="stop2"
         offset="0"
         stop-color="#ff7113" />
      <stop
         id="stop4"
         offset="1"
         stop-color="#fff601" />
    </linearGradient>
    <filter
       id="filter23"
       style="color-interpolation-filters:sRGB;">
      <feColorMatrix
         id="feColorMatrix21"
         values="0.21 0.72 0.072 0 0 0.21 0.72 0.072 0 0 0.21 0.72 0.072 0 0 0 0 0 1 0 " />
    </filter>
  </defs>
  <g
     style="filter:url(#filter23);fill:#ffffff"
     id="g13"
     transform="translate(-25.7143 -635.219)">
    <path
       id="path11"
       fill="url(#a)"
       d="m343.968 763.185c-8.90103-3.25027-13.3233-8.86118-16.9225-16.1162-7.51285-15.1437-6.51149-36.1809 2.62165-47.299 5.2282-6.36447 11.6331-11.4425 19.1943-13.5675 6.64562-1.86767 17.3467-1.74834 22.0718 0.64696l4.07494 2.06574v22.0219s-3.55384-2.98645-5.52255-4.20014c-1.44909-0.89336-2.39011-1.65452-4.5881-2.24297-2.39496-0.64118-6.26192-0.43789-6.26192-0.43789-6.69291 0.55503-10.8042 3.33667-13.6645 9.24513-2.46381 5.08954-2.97431 14.1722-1.11347 19.8106 1.52702 4.62692 7.94845 10.4485 12.4583 11.2946 8.82356 1.65531 14.6923-3.80839 38.4463-35.7926l16.1533-21.5947h28.5253l29.2691 44.3978 0.26913-44.3978h18.9617v73.3094h-19.1461l-29.8539-44.1881v44.1881h-20v-15.4647l-28.5 0.001-5.66989 6.68448s-4.04623 4.5109-6.42882 6.28271c-1.93284 1.43735-4.09545 2.62219-6.2771 3.64311s-4.2341 2.29131-6.58959 2.79489c-3.19546 0.68316-6.11519 1.09022-9.29472 1.03793-2.86771-0.0472-6.33642 0.20931-12.2127-2.12274zm74.9728-56.6255-18.5018 25.2147 18.5018-0.12105zm-262 56.2724c-5.92333-1.24503-11.9644-5.58823-14.7296-10.5899-3.2622-5.90049-4.40698-8.35008-4.2506-17.9498l-0.0198-45.4286h-21v74h-21v-74h-18v-18.0227l80.6964 0.26135s0.13634 53.7823 0.30357 65.1542c0.18571 3.83393 0.89044 3.90714 1.36765 4.88492 1.27159 2.60544 3.22526 3.72222 8.178 3.72222 0.01 0.025 4.86723 0.60469 7.51643-1.96429s2.43792-7.65706 2.43792-7.65706l0.82143-47.8786s9.66082-0.31454 19.8482-0.17857c21.2049-0.50784 24.5498 6.29659 28.3588 10.5954 2.87816 4.09214 3.07805 6.29131 3.31775 11.7076 0.56178 11.1248-1.58115 16.5638-10.1776 21.8756l-1.59933 1 20.5825 27.9646h-24.0982l-16.5342-24.3866-0.30882 3.95653c-0.56626 7.25478-2.80506 11.2374-4.90837 14.4136-1.35699 2.04917-3.83975 3.99974-7.23319 5.6972-5.26895 3.85044-10.3309 3.51496-15.8929 3.74278-5.14506 0.21075-11.2011-0.39964-13.6761-0.91982zm53.4433-45.1908c2.03952-2.91182 1.98807-8.64336-0.0983-10.9488-1.11958-1.23714-3.0606-1.82874-5.99999-1.82874h-4.34501v15h6.49687c2.71823-0.0749 3.06313-0.98134 3.94643-2.22251zm88.57 42.6872v-73.3094h19.8024l0.20932 73.3094m-20.6936 0h-22.5596l-15.6959-25.0853-0.0341 25.0853h-19.0242v-73.4647h18.895c16.3014 0 23.4228 2.16135 29.1821 11.4011 2.63896 4.23373 2.4836 17.0386 0.83445 22.1416-1.30747 4.04577-6.37927 9.25477-9.21052 10.3412l-1.7815 0.68358m-6.66923-19.9481c0-5.31915-3.0848-7.47684-7.14341-7.64012l-5.12445 0.0286v15.9922h4.93821c4.46748 0 7.78949-2.77057 7.32965-8.38072z"
       style="color:#000000;fill:#ffffff" />
  </g>
</svg>
